<?xml version="1.0" encoding="utf-8"?>
<!-- Generator: Adobe Illustrator 26.0.1, SVG Export Plug-In . SVG Version: 6.00 Build 0)  -->
<svg version="1.1"
	 id="svg3899" inkscape:output_extension="org.inkscape.output.svg.inkscape" inkscape:version="0.47 r22583" sodipodi:docname="Seal of the Government of Mexico (linear).svg" sodipodi:version="0.32" xmlns:cc="http://creativecommons.org/ns#" xmlns:dc="http://purl.org/dc/elements/1.1/" xmlns:inkscape="http://www.inkscape.org/namespaces/inkscape" xmlns:rdf="http://www.w3.org/1999/02/22-rdf-syntax-ns#" xmlns:sodipodi="http://sodipodi.sourceforge.net/DTD/sodipodi-0.dtd" xmlns:svg="http://www.w3.org/2000/svg"
	 xmlns="http://www.w3.org/2000/svg" xmlns:xlink="http://www.w3.org/1999/xlink" x="0px" y="0px" viewBox="0 0 568.4 556.8"
	 style="enable-background:new 0 0 568.4 556.8;" xml:space="preserve">
<style type="text/css">
	.st0{fill-rule:evenodd;clip-rule:evenodd;}
</style>
<defs>
	
		<inkscape:perspective  id="perspective4962" inkscape:persp3d-origin="290.39709 : 191.8056 : 1" inkscape:vp_x="0 : 287.7084 : 1" inkscape:vp_y="0 : 1000 : 0" inkscape:vp_z="580.79419 : 287.7084 : 1" sodipodi:type="inkscape:persp3d">
		</inkscape:perspective>
	
		<inkscape:perspective  id="perspective3609" inkscape:persp3d-origin="0.5 : 0.33333333 : 1" inkscape:vp_x="0 : 0.5 : 1" inkscape:vp_y="0 : 1000 : 0" inkscape:vp_z="1 : 0.5 : 1" sodipodi:type="inkscape:persp3d">
		</inkscape:perspective>
</defs>
<sodipodi:namedview  bordercolor="#666666" borderopacity="1.0" gridtolerance="10000" guidetolerance="10" id="base" inkscape:current-layer="layer2" inkscape:cx="238.65539" inkscape:cy="246.57986" inkscape:document-units="px" inkscape:guide-bbox="true" inkscape:pageopacity="0.0" inkscape:pageshadow="2" inkscape:window-height="844" inkscape:window-maximized="0" inkscape:window-width="1440" inkscape:window-x="-4" inkscape:window-y="-4" inkscape:zoom="0.81" objecttolerance="10" pagecolor="#ffffff" showgrid="false" showguides="true">
	</sodipodi:namedview>
<g id="layer1" transform="translate(-105.16328,-198.62768)" inkscape:groupmode="layer" inkscape:label="Layer 1">
</g>
<g id="layer2" transform="translate(-3.1185656,-5.1102943)" inkscape:groupmode="layer" inkscape:label="okok">
	<g id="g3246" transform="matrix(0.36854127,0.02517721,-0.02517721,0.36854127,-193.54441,16.791896)">
		<g id="g3531" transform="matrix(3.5320828,0,0,3.5320828,-1407.2765,-899.33728)">
			<path id="path9" class="st0" d="M830.1,624.9c0,1.2-1.2,0,0,2.5c-3.7-1.2-3.7-1.2-6.1-1.2c0-1.2,0-1.2,0-2.4
				C825.2,622.4,826.4,622.4,830.1,624.9"/>
			<path id="path11" class="st0" d="M760.1,628.6c0,1.2,1.2,0,1.2,2.5c2.4-1.2,2.4-1.2,6.1-1.2c0-2.5,0-2.5,0-3.7
				C765,624.9,763.8,624.9,760.1,628.6"/>
			<g id="g13">
				<path id="path15" class="st0" d="M784.6,604c2.5,0,3.7,0,4.9,0c0,6.1,1.2,12.3,2.5,18.4c-1.2,0-3.7,0-4.9,0
					C785.9,616.3,784.6,610.1,784.6,604"/>
				<path id="path17" class="st0" d="M784.6,623.6c1.2,2.4,2.5,2.4,4.9,2.4c-6.1,4.9-18.4,11.1-19.6,19.7c-1.2-1.2-2.5-3.7-3.7-4.9
					C767.5,633.5,778.5,628.6,784.6,623.6"/>
				<path id="path19" class="st0" d="M815.4,642.1c0,1.2-4.9,0-3.7,2.5c-7.4-1.2-6.1-6.1-14.7-4.9c0-2.5,2.5-2.5,3.7-3.7
					C806.8,634.7,808,638.4,815.4,642.1"/>
			</g>
			<g id="g21">
				<path id="path3210" class="st0" d="M798.2,624.9c1.2,1.2,2.4,0,4.9,0c-3.7,7.4-16,14.7-18.4,22.1c-1.2-1.2-1.2-3.7-2.4-4.9
					C783.4,634.7,792,629.8,798.2,624.9"/>
				<path id="path3212" class="st0" d="M828.9,634.7c0,2.5-3.7,1.2-3.7,3.7c-7.4-1.2-12.3-8.6-20.9-7.4c1.2-2.5,1.2-2.5,2.5-4.9
					C812.9,624.9,821.5,631,828.9,634.7"/>
				<path id="path3214" class="st0" d="M804.3,604c-1.2,0-3.7,0-4.9,0c0,6.1,0,12.3-2.5,18.4c1.2,0,3.7,0,4.9,0
					C804.3,616.3,804.3,610.1,804.3,604"/>
			</g>
			<g id="g29">
				<g id="g31">
					<path id="path3218" class="st0" d="M756.4,561c-2.4,0-3.7-2.5-3.7-4.9c0-2.5,2.4-3.7,3.7-2.5c1.2,0,3.7,0,2.5,2.5
						c0,1.2,3.7,1.2,3.7,0c0-3.7-2.4-6.1-4.9-6.1c-3.7-1.2-7.4,0-8.6,4.9c0,1.2,1.2,4.9,1.2,6.1c-1.2,9.8-1.2,13.5,2.5,22.1
						c0,1.2,0,0,0,1.2c-1.2,1.2-1.2,4.9,0,7.4c2.4,3.7,6.1,3.7,8.6,2.5c3.7,0,4.9-4.9,3.7-8.6c0-1.2-2.4,0-2.4,1.2
						c1.2,2.4,0,3.7-1.2,3.7c-2.5,1.2-4.9,1.2-6.2-1.2c0-2.4,1.2-4.9,3.7-6.1C755.2,579.4,752.7,568.4,756.4,561"/>
					<path id="path3220" class="st0" d="M827.6,559.8c1.2-1.2,2.5-4.9,2.5-7.4c-1.2-2.5-3.7-2.5-4.9-1.2c-1.2,0-2.4,1.2-2.4,3.7
						c1.2,1.2-2.5,2.5-3.7,0c-1.2-2.4,2.5-7.4,4.9-7.4c3.7-1.2,8.6,0,9.8,3.7c1.2,2.5,0,6.1-1.2,7.4c2.4,8.6,3.7,11.1,0,19.6
						c2.4,0,1.2,0,2.4,1.2c0,1.2,1.2,3.7,1.2,6.1c-1.2,4.9-6.2,4.9-8.6,4.9c-3.7,0-6.1-3.7-4.9-7.4c0-2.5,2.4-2.5,2.4,0
						c0,2.5,1.2,2.5,2.4,3.7c2.5,0,3.7-1.2,3.7-3.7c0-2.5-1.2-4.9-2.5-4.9C830.1,574.5,832.6,564.7,827.6,559.8"/>
					<path id="path3222" class="st0" d="M787.1,554.9c-7.4-1.2-14.7,0-22.1,1.2c0-1.2,0-2.5,0-4.9c7.4-1.2,14.8-1.2,22.1-1.2
						C787.1,551.2,787.1,553.7,787.1,554.9"/>
					<path id="path3224" class="st0" d="M767.5,590.5c13.5,8.6,47.9,2.5,54,0c0,0,4.9,0,3.7,2.5c-8.6,7.4-56.5,7.4-58.9,2.4
						C766.2,595.4,767.5,591.7,767.5,590.5"/>
					<path id="path3226" class="st0" d="M774.8,559.8c12.3,13.5,7.4,20.9,19.7,31.9c-1.2,0-2.5,0-2.5,0
						c-14.7-12.3-11-22.1-23.3-33.2C769.9,557.3,773.6,557.3,774.8,559.8"/>
					<path id="path3228" class="st0" d="M785.9,557.3c11.1,13.5,7.4,22.1,19.6,34.4c-1.2,0-2.5,1.2-4.9-1.2
						c-12.3-13.5-8.6-22.1-20.9-33.2C781,557.3,783.4,557.3,785.9,557.3"/>
					<path id="path3230" class="st0" d="M800.6,567.2c4.9,2.4,2.5,13.5,14.8,23.3c-1.2,0-2.5,1.2-3.7-1.2
						c-9.8-8.6-7.4-12.3-14.7-22.1C798.2,565.9,799.4,565.9,800.6,567.2"/>
					<path id="path3232" class="st0" d="M864.5,578.2v3.7c4.9,0,7.4-2.4,7.4-7.4c1.2-4.9-1.2-7.3-4.9-8.6c-3.7,0-7.4,1.2-8.6,6.1
						c-1.2,3.7,2.5,8.6,6.1,9.8V578.2c-1.2-1.2-2.4-2.4-2.4-4.9c0-3.7,2.4-3.7,3.7-3.7c2.5,1.2,3.7,2.4,2.5,4.9
						C868.2,577,866.9,578.2,864.5,578.2"/>
					<path id="path3234" class="st0" d="M887.8,547.5c-6.2-1.2-9.8-2.5-16,1.2c-4.9,2.4-2.4,7.4,1.2,8.6c6.2,2.5,9.8,1.2,17.2-3.7
						c-4.9-1.2-9.8-1.2-13.5-1.2c0,0-1.2,2.4,0,3.7c-1.2,0-2.5,0-2.5-1.2c-3.7-8.6,8.6-4.9,14.7-4.9C889,550,889,547.5,887.8,547.5"
						/>
					<path id="path51" class="st0" d="M838.7,557.3c8.6-1.2,18.4-2.5,27-4.9v1.2c-8.6,3.7-18.4,4.9-27,6.1V557.3"/>
					<path id="path3237" class="st0" d="M841.1,583.1c4.9-2.5,9.8-4.9,14.7-4.9c0-1.2,0-2.4,0-2.4c-3.7-1.2-9.8,1.2-16,3.7
						L841.1,583.1"/>
					<path id="path3239" class="st0" d="M855.9,568.4c-8.6,0,4.9-7.4,12.3-9.8l-1.2-1.2c-11.1,2.5-29.5,12.3-11.1,14.7
						C857.1,572.1,855.9,568.4,855.9,568.4"/>
					<path id="path3241" class="st0" d="M709.7,588c4.9-3.7,9.8-4.9,16-4.9c4.9,1.2,4.9,7.4,2.4,9.8c-6.1,3.7-9.8,4.9-18.4,1.2
						c3.7-1.2,9.8-3.7,13.5-6.2c-1.2,1.2,1.2,2.5,1.2,3.7c0,0,1.2,0,1.2-1.2c1.2-9.8-9.8-2.5-16,0L709.7,588"/>
					<path id="path3243" class="st0" d="M722,545.1v3.7c4.9,0,7.4-1.2,7.4-7.4c1.2-4.9-1.2-7.4-4.9-8.6c-3.7,0-7.4,1.2-8.6,4.9
						c-1.2,4.9,2.4,9.8,6.1,11.1V545.1c-1.2-1.2-2.5-2.4-2.5-4.9c0-3.7,2.5-3.7,4.9-3.7c1.2,1.2,2.5,2.5,2.5,4.9
						C725.7,543.8,724.5,545.1,722,545.1"/>
					<path id="path3245" class="st0" d="M691.3,573.3v3.7c4.9,0,7.4-1.2,7.4-7.4c0-3.7-1.2-7.4-4.9-8.6c-3.7,0-7.4,1.2-8.6,6.2
						c-1.2,4.9,2.5,8.6,6.1,9.8V573.3c-1.2,0-2.4-2.5-2.4-4.9c0-2.4,2.4-3.7,3.7-2.4c2.5,0,3.7,1.2,2.5,3.7
						C695,572.1,693.8,573.3,691.3,573.3"/>
					<path id="path3247" class="st0" d="M665.5,536.5c6.1,0,9.8,0,16,3.7c3.7,4.9,0,9.8-3.7,9.8c-7.4,0-11-1.2-16-8.6
						c3.7,0,9.8,2.4,13.5,2.4c0,0,1.2,2.5,0,3.7c0,0,1.2,0,2.5-1.2c4.9-7.4-8.6-7.4-14.7-7.4C663.1,538.9,664.3,536.5,665.5,536.5"
						/>
					<path id="path3249" class="st0" d="M722,551.2c1.2,6.1-29.5-9.8-35.6-8.6c-1.2,1.2,0,2.4,0,2.4c11,1.2,39.3,18.4,39.3,7.4
						C725.7,551.2,722,552.4,722,551.2"/>
					<path id="path67" class="st0" d="M745.3,558.6c-6.1-2.4-12.3-7.4-16-9.8c0,0,0,1.2-1.2,1.2c1.2,4.9,9.8,11,17.2,11
						C745.3,561,744.1,558.6,745.3,558.6"/>
					<path id="path3252" class="st0" d="M747.8,591.7c-4.9-3.7-9.8-3.7-14.7-2.5c0-1.2,0-2.4-1.2-2.4c4.9-3.7,11.1-3.7,16,1.2
						C747.8,588,747.8,590.5,747.8,591.7"/>
					<path id="path3254" class="st0" d="M699.9,561c1.2-3.7-6.1-7.4-16-9.8c0-1.2,1.2-1.2,1.2-2.4c11.1,2.4,27,11,16,14.7
						C701.1,564.7,699.9,561,699.9,561"/>
					<path id="path3256" class="st0" d="M729.4,581.9c12.3-8.6-18.4-12.3-27-12.3c1.2,0,0-1.2,0-2.4c12.3-1.2,45.4,3.7,29.5,17.2
						C731.8,584.4,730.6,580.7,729.4,581.9"/>
				</g>
				<path id="path75" class="st0" d="M792,500.8c0,2.5,0,6.1,1.2,9.8c-1.2,0-3.7,0-4.9,0c-2.5,1.2-3.7,3.7-1.2,6.1l-1.2-1.2
					c-3.7,0-6.1-4.9-2.5-11.1C784.6,503.3,790.8,499.6,792,500.8"/>
				<path id="path3259" class="st0" d="M800.6,513.1c0,3.7,2.5,6.1,3.7,8.6c-2.5,1.2-4.9,7.4,0,8.6h-2.5c-3.7,1.2-8.6-2.5-7.4-8.6
					C794.5,519.3,798.2,514.4,800.6,513.1"/>
				<path id="path3261" class="st0" d="M860.8,505.8c-2.5,1.2-3.7,3.7-4.9,6.1c2.5,2.4,6.1,8.6,1.2,9.8h2.5c3.7,1.2,7.4-2.5,7.4-8.6
					C866.9,510.7,862,505.8,860.8,505.8"/>
			</g>
			<g id="g81">
				<path id="path3264" class="st0" d="M663.1,320.3c0-1.2,0-3.7-1.2-3.7c-4.9,2.5-13.5,9.8-13.5,14.7c0,11,4.9,25.8,11.1,28.2
					c2.5,1.2,11,0,13.5-1.2c0-1.2-1.2-3.7-1.2-4.9c-1.2,0-7.4,2.5-8.6,1.2c-7.4-1.2-7.4-14.7-6.1-20.9l6.1-12.3
					c-2.4,2.4-6.1,4.9-7.4,4.9C654.5,322.8,661.9,317.9,663.1,320.3"/>
				<path id="path3266" class="st0" d="M676.6,343.7c0,4.9-13.5,6.1-14.7,0C666.8,346.1,672.9,346.1,676.6,343.7"/>
				<path id="path87" class="st0" d="M698.7,348.6c11-3.7,19.6,18.4,11,27C712.2,367,709.7,351,698.7,348.6"/>
				<path id="path3269" class="st0" d="M691.3,352.3c0-1.2,1.2-2.5,1.2-1.2c0,0,1.2,0,2.5,0c4.9,1.2,11.1,9.8,12.3,20.9
					c1.2,8.6-22.1,29.5-29.5,39.3c-3.7,8.6,3.7,18.4,1.2,17.2c-16-9.8-3.7-24.6-2.5-25.8c17.2-20.9,34.4-30.7,20.9-45.4
					c0,0-4.9-1.2-6.1-1.2C691.3,354.7,691.3,352.3,691.3,352.3"/>
				<path id="path3271" class="st0" d="M722,454.2c1.2,0,4.9-4.9,4.9-6.1c0,0,0,0,1.2-2.5c3.7-4.9,1.2-16-6.1-19.6
					c-7.4-6.1-22.1,0-33.1-2.5c-6.1-3.7-7.4-13.5-7.4-12.3c-3.7,14.7,9.8,16,11,16c19.7,2.5,33.2-4.9,33.2,14.7c0,0-1.2,1.2-1.2,2.5
					c-2.5,2.5-6.1,7.4-6.1,7.4C717.1,451.7,722,453,722,454.2"/>
				<path id="path3273" class="st0" d="M747.8,320.3c-3.7-3.7-11-4.9-16-6.1l-1.2,1.2c2.5,1.2,12.3,3.7,16,7.4
					C747.8,322.8,747.8,321.6,747.8,320.3"/>
				<path id="path3275" class="st0" d="M750.3,347.3c0-6.1,0-9.8,0-12.3c0,0-1.2,1.2-2.5,1.2c1.2,1.2,1.2,8.6,0,11.1H750.3"/>
				<path id="path3277" class="st0" d="M742.9,407.5c-2.5-17.2-1.2-18.4-1.2-25.8c0,0,2.5,0,3.7,0c-2.4,3.7,0,24.6,2.5,29.5
					C747.8,411.2,745.3,410,742.9,407.5"/>
				<path id="path3279" class="st0" d="M765,405.1c-3.7-17.2-2.4-17.2-1.2-24.6c0,0,1.2,0,3.7,0c-3.7,2.5-2.5,17.2,0,20.9
					C767.5,401.4,767.5,407.5,765,405.1"/>
				<path id="path3281" class="st0" d="M781,392.8c-1.2-12.3-1.2-11.1-1.2-16c0,0,0-1.2,2.5-1.2c-2.5,2.4,1.2,8.6,2.4,16
					C784.6,394,784.6,395.2,781,392.8"/>
				<path id="path3283" class="st0" d="M793.2,373.1c-2.4-4.9-2.4-4.9-3.7-6.1c0,0,0,0-1.2,1.2c2.5,0,2.5,2.4,3.7,6.1
					C792,375.6,792,375.6,793.2,373.1"/>
				<path id="path3285" class="st0" d="M739.2,373.1c2.5-6.1,3.7-9.8,4.9-13.5c0,0-1.2,0-2.5,0c0,1.2-3.7,9.8-3.7,12.3L739.2,373.1"
					/>
				<path id="path3287" class="st0" d="M729.4,371.9c2.5-4.9,3.7-8.6,6.1-12.3h-2.4c0,1.2-4.9,8.6-6.1,12.3H729.4"/>
				<path id="path3289" class="st0" d="M756.4,371.9c1.2-7.4,1.2-13.5,2.5-18.4l-2.5,2.5c0,2.5-2.4,12.3-2.4,17.2L756.4,371.9"/>
				<path id="path3291" class="st0" d="M766.2,338.8c-2.4-7.4-3.7-12.3-4.9-16c0,0-1.2,1.2-1.2,2.5c1.2,2.4,3.7,9.8,4.9,13.5
					C765,340,766.2,338.8,766.2,338.8"/>
				<path id="path3293" class="st0" d="M776,367c0-9.8-1.2-16-1.2-22.1l-1.2,2.5c0,3.7,0,14.7,0,19.7H776"/>
				<path id="path3295" class="st0" d="M820.3,317.9c8.6,3.7,13.5,6.1,18.4,9.8c0,0-1.2-2.4,0-3.7c-3.7-1.2-13.5-4.9-18.4-8.6V317.9
					"/>
				<path id="path3297" class="st0" d="M855.9,303.1c7.4-2.5,51.6,45.4,59,58.9c0,0,2.5-1.2,2.5-2.4c-2.5-7.4-49.1-60.2-58.9-59
					L855.9,303.1"/>
				<path id="path3299" class="st0" d="M843.6,344.9c3.7-1.2,22.1,14.8,25.8,20.9c0,0,3.7,0,2.4-1.2c-1.2-3.7-22.1-23.3-27-23.3
					L843.6,344.9"/>
				<path id="path121" class="st0" d="M836.2,362.1c2.4,1.2,11,8.6,16,12.3c0,0,3.7,0,1.2-1.2c-1.2-2.5-12.3-14.7-16-14.7
					L836.2,362.1"/>
				<path id="path3302" class="st0" d="M826.4,376.8c1.2,1.2,2.4,2.5,7.4,7.4c0,0,3.7,0,2.5-1.2c-2.5-3.7-6.2-8.6-8.6-8.6
					L826.4,376.8"/>
				<path id="path3304" class="st0" d="M812.9,390.3c1.2,1.2,2.5,3.7,4.9,6.1c0,0,1.2-1.2,2.4-2.4c-2.4-2.5-3.7-3.7-6.1-6.2
					L812.9,390.3"/>
				<path id="path3306" class="st0" d="M793.2,400.2c2.5,1.2,9.8,12.3,12.3,16c0,0,1.2-1.2,1.2-2.4c-1.2-2.5-9.8-16-12.3-18.4
					L793.2,400.2"/>
				<path id="path3308" class="st0" d="M779.7,412.4c2.5,0,9.8,14.7,13.5,18.4c0,0,0-1.2,1.2-2.5c-2.5-3.7-9.8-16-12.3-18.4
					L779.7,412.4"/>
				<path id="path131" class="st0" d="M808,433.3c2.4,1.2,9.8,13.5,11,19.6c0,0,0-1.2,1.2-2.5c-1.2-3.7-7.4-18.4-9.8-19.6
					C808,429.6,806.8,433.3,808,433.3"/>
				<path id="path133" class="st0" d="M790.8,445.6c1.2,0,11,11.1,12.3,16c0,0,1.2,0,2.5-1.2c-1.2-3.7-9.8-16-12.3-17.2
					C790.8,441.9,788.3,443.1,790.8,445.6"/>
				<path id="path135" class="st0" d="M811.7,477.5c1.2,0,6.1,6.1,7.4,9.8c0,0,1.2,0,2.5-1.2c-1.2-2.5-4.9-8.6-6.1-9.8
					C814.1,475.1,810.4,476.3,811.7,477.5"/>
				<path id="path3313" class="st0" d="M800.6,478.8c1.2,0,4.9,4.9,6.2,8.6c0,0,1.2,0,2.5-1.2c-1.2-1.2-6.2-8.6-7.4-8.6
					C800.6,476.3,800.6,477.5,800.6,478.8"/>
				<path id="path3315" class="st0" d="M774.8,451.7c2.5,2.4,12.3,11,17.2,17.2c0,0,0,1.2,1.2,0c-4.9-7.4-13.5-16-15.9-17.2
					C772.4,445.6,772.4,446.8,774.8,451.7"/>
				<path id="path3317" class="st0" d="M820.3,413.7c1.2,0,7.4,13.5,9.8,23.3c0,0,1.2-1.2,1.2-2.4c0-4.9-8.6-23.3-11.1-24.6
					C820.3,410,820.3,412.4,820.3,413.7"/>
				<path id="path3319" class="st0" d="M761.3,419.8c2.4,1.2,11,14.7,14.7,18.4c0,0,1.2,0,1.2-2.5c-1.2-2.4-11.1-14.7-13.5-16
					L761.3,419.8"/>
				<path id="path145" class="st0" d="M825.2,338.8c4.9,3.7,8.6,6.1,8.6,6.1c0,1.2,1.2-1.2,1.2-2.4c-1.2,0-7.4-3.7-9.8-4.9
					L825.2,338.8"/>
				<path id="path147" class="st0" d="M819,358.4c4.9,3.7,4.9,3.7,4.9,3.7c-1.2,0,1.2-1.2,1.2-2.4c-1.2-1.2-2.4-2.5-4.9-3.7
					L819,358.4"/>
				<path id="path3323" class="st0" d="M808,373.1c4.9,3.7,3.7,3.7,3.7,3.7s2.5-1.2,2.5-2.5c-1.2-1.2-2.5-1.2-4.9-3.7L808,373.1"/>
				<path id="path3325" class="st0" d="M776,331.4c-4.9-7.4-8.6-12.3-11.1-17.2c0,0,0,2.4-1.2,2.4c2.4,1.2,8.6,12.3,11,16L776,331.4
					"/>
				<path id="path3327" class="st0" d="M671.7,319.1c1.2,0,1.2-2.5,2.4-2.5c1.2,3.7,2.5,8.6-1.2,12.3
					C674.1,325.3,672.9,322.8,671.7,319.1"/>
				<path id="path3329" class="st0" d="M679.1,328.9c3.7,3.7-17.2,17.2-19.7,11c-1.2-1.2,2.5-12.3,6.1-18.4c1.2-3.7,0-6.1-1.2-6.1
					c-1.2,0,3.7-3.7,3.7-3.7c4.9-3.7,6.1,2.5,4.9,3.7c-6.1,6.1-3.7,7.4-3.7,7.4c2.4-1.2,0,6.1-3.7,9.8c-1.2,0-2.5,2.4-1.2,3.7
					C669.2,336.3,676.6,332.6,679.1,328.9"/>
				<path id="path157" class="st0" d="M693.8,338.8c-2.5,1.2-3.7-1.2-3.7,0c0,2.5-2.5,3.7-7.4,2.5c-2.5,1.2-4.9,3.7-4.9,4.9
					c-4.9,8.6,1.2,20.9,17.2,17.2c-12.3-9.8-4.9-18.4,9.8-17.2c0-1.2,6.1-3.7,6.1-4.9c-1.2,0-7.3-1.2-9.8-1.2c-1.2,0,1.2,3.7,0,3.7
					c-8.6,0-22.1,4.9-14.7,16c0,0-9.8-1.2-6.1-11.1c0-2.5,1.2-4.9,3.7-4.9c1.2,0,6.2,0,6.2,0L693.8,338.8"/>
				<path id="path159" class="st0" d="M687.6,335.1c25.8,3.7,23.3,1.2,27,1.2c2.5,0,7.4,0,11.1,4.9c1.2,2.4-9.8,9.8-17.2,9.8
					c6.1-4.9,12.3-7.4,11-9.8c-2.4,0-6.1-1.2-8.6,0c-2.4,1.2-7.3,0-11-1.2c-1.2,0-3.7,0-6.1,0c-1.2,0-4.9-1.2-7.4-1.2
					C685.2,338.8,686.4,338.8,687.6,335.1"/>
				<path id="path3333" class="st0" d="M701.1,305.6c0,2.4-1.2,12.3-3.7,13.5c-3.7,3.7-8.6,3.7-8.6,12.3c3.7,2.4,6.1,2.4,9.8,1.2
					v-2.5c-7.4,0-8.6,0-6.2-3.7c0-1.2,4.9-2.5,7.4-8.6c0,3.7-3.7,12.3-3.7,12.3c1.2,0,1.2,0,2.5,0c0,0,1.2-6.1,2.4-9.8
					c1.2,0,2.5-1.2,2.5-1.2C704.8,316.6,703.6,310.5,701.1,305.6"/>
				<path id="path3335" class="st0" d="M702.4,324c1.2,0,0-4.9,1.2-3.7c4.9,3.7,4.9,9.8-3.7,13.5C704.8,328.9,706.1,325.3,702.4,324
					"/>
				<path id="path3337" class="st0" d="M712.2,309.3c-1.2,0,1.2-1.2,1.2-2.4c0-4.9-6.1-9.8-6.1-8.6c0,4.9,0,9.8-1.2,16
					c0,0,2.4,0,2.4-1.2c2.4-3.7,1.2-4.9,1.2-8.6C709.7,304.4,712.2,305.6,712.2,309.3"/>
				<path id="path3339" class="st0" d="M728.1,308c0-1.2,1.2,3.7,2.5,2.5c8.6-11.1,2.5-17.2-2.5-18.4c-3.7,0,0,6.1-4.9,11
					c0,0,0,3.7,1.2,2.5c2.5-2.5,3.7-3.7,4.9-6.2C729.4,298.2,731.8,301.9,728.1,308"/>
				<path id="path169" class="st0" d="M704.8,319.1c0,0,1.2,2.5,2.5,2.5c11-7.4,17.2-16,8.6-28.3
					C717.1,305.6,717.1,311.7,704.8,319.1"/>
				<path id="path171" class="st0" d="M709.7,327.7c0-1.2-2.5,2.5,0,2.5c6.1,0,22.1-14.7,17.2-18.4l-1.2-1.2
					c-3.7,0-11.1,8.6-17.2,12.3c1.2,0,0,2.5,1.2,2.5c4.9-2.5,12.3-11,14.7-11C725.7,315.4,714.7,325.3,709.7,327.7"/>
				<path id="path3343" class="st0" d="M738,304.4c0,1.2-2.4-2.5-1.2-2.5c4.9,0,16,6.1,20.9,4.9c1.2,0,4.9,1.2,4.9,2.4
					c0,1.2-3.7,7.4-3.7,7.4c-4.9,0-16-6.1-23.3-7.4c1.2,0-1.2-2.4,1.2-2.4c4.9,1.2,18.4,7.4,19.6,6.1c0,0,1.2,0,1.2-1.2
					C754,309.3,742.9,304.4,738,304.4"/>
				<path id="path3345" class="st0" d="M777.3,303.1c0,1.2-2.5-1.2-1.2-2.5c0-2.4,7.4,0,7.4,0c1.2,0,1.2,0,2.5,0
					c0,1.2,4.9,8.6,3.7,9.8c-1.2,2.5-4.9,0-7.3,1.2c0,0-2.5-2.5-1.2-2.5c2.4,0,6.1,0,6.1-1.2c0,0-2.5-4.9-3.7-4.9
					C781,301.9,779.7,303.1,777.3,303.1"/>
				<path id="path3347" class="st0" d="M825.2,284.7c1.2,0-1.2-1.2-2.4-1.2c-2.5,0,1.2,7.4,1.2,7.4c0,1.2,1.2,1.2,2.5,2.5
					c0,0,7.4,2.5,8.6,2.5c1.2-1.2,0-4.9,1.2-8.6c0,1.2-4.9-1.2-4.9-1.2c1.2,3.7,1.2,6.1,0,6.1c0,0-3.7,0-3.7-1.2
					C826.4,288.4,825.2,287.2,825.2,284.7"/>
				<path id="path3349" class="st0" d="M805.5,281c1.2,0-3.7-1.2-4.9-1.2c-1.2,1.2,8.6,7.4,7.4,8.6c0,0,1.2,1.2,2.4,1.2
					c0,0,8.6,2.5,9.8,1.2c1.2-2.4-1.2-6.1-2.4-8.6c0,0-3.7-1.2-3.7,0c1.2,2.5,2.4,3.7,1.2,4.9c-1.2,0-3.7,0-4.9,0
					C809.2,284.7,805.5,282.3,805.5,281"/>
				<path id="path181" class="st0" d="M784.6,316.6c0,1.2-1.2-2.4,0-2.4c2.5,0,4.9,0,6.1,0c0,0,1.2,0,1.2,1.2
					c1.2,2.4,4.9,11,2.5,13.5c-2.5,2.5-6.1,0-8.6,0c0,1.2-2.5-1.2,0-2.5c2.5,0,6.1,0,6.1-1.2c1.2-1.2-1.2-6.1-2.5-7.4
					C787.1,316.6,785.9,316.6,784.6,316.6"/>
				<path id="path183" class="st0" d="M785.9,335.1c1.2,1.2,1.2-2.4,1.2-2.4c2.4-1.2,6.1,0,7.4,0c2.5,0,2.5,2.4,3.7,3.7
					c0,3.7,0,3.7-1.2,6.2c-2.5,3.7-3.7,6.1-6.1,7.4c0,0-1.2-3.7,0-4.9c2.4-2.4,2.4-4.9,2.4-4.9c1.2-3.7,0-4.9-1.2-4.9
					C789.6,335.1,788.3,335.1,785.9,335.1"/>
				<path id="path185" class="st0" d="M758.9,295.8c2.5,0-3.7-2.5-3.7-2.5c0-1.2,11,1.2,9.8-1.2c-1.2-1.2,1.2-1.2,3.7,0
					c1.2,1.2,7.3,3.7,7.3,4.9c0,2.5-2.5,2.5-6.1,2.5c1.2,0-2.5,0-2.5-1.2c-1.2-1.2,6.1,0,4.9-1.2c0,0-3.7-2.4-4.9-2.4
					C765,294.6,760.1,294.6,758.9,295.8"/>
				<path id="path3354" class="st0" d="M733.1,313c0,1.2,0-1.2,1.2-2.5c2.4,0,23.3,8.6,20.9,12.3c0,0-1.2,3.7-3.7,6.1
					c-3.7,3.7-14.7-7.4-20.9-9.8c1.2,1.2-1.2-1.2,0-1.2c6.1,0,17.2,6.1,19.7,7.4c1.2,1.2,2.5-2.5,1.2-3.7
					C749,317.9,739.2,313,733.1,313"/>
				<path id="path3356" class="st0" d="M731.8,324c0,0-1.2-1.2,0-2.4c2.5,0,17.2,7.4,14.7,11.1c0,0-2.4,3.7-4.9,6.1
					c-2.5,0-4.9-6.1-8.6-8.6c1.2,0,0-4.9,1.2-2.5c1.2,2.5,4.9,4.9,6.1,6.1c1.2,0,2.5-2.4,2.5-2.4C739.2,328.9,736.8,326.5,731.8,324
					"/>
				<path id="path3358" class="st0" d="M730.6,333.8c0,0,0-1.2,1.2-1.2c2.5,0,7.4,7.4,4.9,8.6c0,0-2.4,3.7-4.9,3.7
					c-2.5,0-2.5-6.1-4.9-8.6c1.2,1.2,2.4-3.7,2.4-1.2c1.2,2.4,1.2,2.4,2.5,4.9c1.2,1.2,1.2,0,1.2-1.2
					C733.1,335.1,733.1,336.3,730.6,333.8"/>
				<path id="path193" class="st0" d="M749,287.2c1.2,0,0-1.2,0-1.2c1.2-1.2,8.6-2.5,8.6,0c0,0,1.2,3.7,0,4.9c0,1.2-4.9,0-7.4,0
					c1.2,0-2.5-3.7,0-2.4c1.2,1.2,1.2,0,4.9,0c0,0,0,0-1.2-1.2C751.5,286,752.7,286,749,287.2"/>
				<path id="path195" class="st0" d="M738,343.7c-1.2,1.2,1.2-2.4,2.5-2.4c1.2,2.4,2.5,9.8-4.9,16c-1.2,1.2-6.1,1.2-7.4-1.2
					c-1.2-2.5,1.2-6.1,4.9-9.8c0,0,3.7-3.7,2.4-1.2c-1.2,2.5-2.4,4.9-3.7,8.6c0,0,1.2,1.2,3.7-1.2
					C736.8,348.6,736.8,349.8,738,343.7"/>
				<path id="path3362" class="st0" d="M752.7,332.6c-1.2,0,2.4-4.9,2.4-3.7c1.2,4.9,2.5,18.4-1.2,24.6c-1.2,1.2-9.8,3.7-11,0
					c-1.2-2.5,0-8.6,1.2-14.7c0,1.2,3.7-2.5,2.4,0c-1.2,2.5-1.2,7.4,0,11.1c0,0,3.7,2.5,4.9-1.2C754,344.9,752.7,337.5,752.7,332.6"
					/>
				<path id="path3364" class="st0" d="M738,383c1.2,1.2-2.4-1.2-2.4,1.2c-3.7,9.8-1.2,23.3,4.9,31.9c1.2,3.7,11,6.1,14.7,2.5
					c2.5-3.7-1.2-13.5-2.4-23.3c0,1.2,0-7.4,0-9.8c-1.2-2.5-3.7,0-3.7,1.2c-1.2,0-1.2,7.4-1.2,8.6c0,7.4,4.9,9.8,2.5,19.6
					c0,0-6.1,0-8.6-2.4C736.8,405.1,738,392.8,738,383"/>
				<path id="path3366" class="st0" d="M724.5,380.5c1.2-1.2,0-6.1-3.7,1.2c-6.1,11.1,4.9,20.9,4.9,31.9c0,3.7,6.1,8.6,8.6,2.4
					c3.7-4.9-2.5-12.3-3.7-22.1c0,0,1.2-9.8,1.2-11.1c0-2.5-2.5-2.5-3.7-1.2l-1.2,9.8c-1.2,8.6,4.9,12.3,3.7,22.1
					c0,0-2.5,1.2-2.5-2.5C728.1,403.8,714.7,395.2,724.5,380.5"/>
				<path id="path3368" class="st0" d="M760.1,380.5c1.2,1.2-2.5-1.2-3.7,1.2c-2.4,9.8,0,22.1,6.1,30.7c1.2,2.4,9.8,2.4,11-2.5
					c1.2-4.9,0-8.6-1.2-17.2c0,0,0-9.8,0-12.3c-1.2-1.2-3.7,0-3.7,0s0,7.4,0,9.8c-1.2,6.1,1.2,13.5,1.2,18.4c0,0-4.9,2.5-6.1,0
					C758.9,401.4,758.9,389.1,760.1,380.5"/>
				<path id="path3370" class="st0" d="M778.5,378c0,0-2.5-1.2-3.7,0c-2.5,8.6-1.2,19.6,4.9,27c2.5,1.2,8.6-1.2,9.8-4.9
					c2.5-4.9,2.5-6.1,0-12.3c0,0-3.7-12.3-4.9-14.7c-1.2-1.2-2.4,1.2-2.4,1.2s2.4,8.6,3.7,9.8c1.2,6.1,2.5,7.4,1.2,12.3
					c-1.2,1.2-4.9,4.9-4.9,2.5C778.5,391.6,777.3,384.2,778.5,378"/>
				<path id="path3372" class="st0" d="M794.5,392.8c1.2,1.2,0-3.7,1.2-3.7c7.4,8.6,14.7,18.4,18.4,28.2c1.2,2.5-1.2,9.8-4.9,11.1
					c-6.2,0-17.2-17.2-19.7-23.3c0-1.2,2.5-2.4,2.5-2.4c1.2,0,13.5,19.7,16,20.9c1.2,0,3.7-3.7,2.4-7.4
					C808,408.7,800.6,398.9,794.5,392.8"/>
				<path id="path3374" class="st0" d="M784.6,408.7l2.5-3.7c6.1,11.1,13.5,18.4,16,28.3c0,3.7-2.5,7.4-6.1,7.4
					c-6.1,1.2-19.6-18.4-23.3-24.6c-1.2-1.2,0-1.2,2.5-2.4c1.2,0,14.7,20.9,17.2,22.1c0,0,7.4,0,6.2-4.9
					C796.9,423.5,789.6,413.7,784.6,408.7"/>
				<path id="path3376" class="st0" d="M767.5,418.6c0,1.2,1.2-3.7,1.2-2.5c8.6,8.6,14.7,14.7,17.2,24.6c0,3.7,0,6.1-3.7,6.1
					c-6.2,1.2-23.3-17.2-25.8-23.3c0,0,0-1.2,2.5-2.4c0,0,17.2,22.1,19.7,22.1c0,0,6.1,0,3.7-4.9
					C778.5,432.1,772.4,423.5,767.5,418.6"/>
				<path id="path213" class="st0" d="M742.9,434.5c0,0,1.2,1.2,2.4,2.4c0,0,1.2-1.2-1.2,2.5c-1.2,0-1.2,0-2.5,0
					c-2.5,0-6.1-8.6-4.9-13.5c0,0,1.2,2.4,2.4,3.7c0,0,0,4.9,1.2,6.1c0,0,1.2,0,1.2-1.2C742.9,433.3,741.7,434.5,742.9,434.5"/>
				<path id="path215" class="st0" d="M749,424.7c0,1.2,1.2-1.2,2.5,0c7.4,8.6,9.8,12.3,16,18.4c4.9,4.9,2.5,6.1-1.2,4.9
					c-13.5-3.7-27-24.6-31.9-28.3c0,0,1.2,0,4.9,0c0,0,20.9,23.3,24.6,23.3c0,0,3.7,3.7,0-1.2C758.9,437,754,430.9,749,424.7"/>
				<path id="path3380" class="st0" d="M817.8,418.6c1.2,0-1.2,1.2,0,3.7c3.7,6.1,9.8,22.1,11,29.5c1.2,7.4,3.7,6.1,4.9,3.7
					c6.1-16-2.5-44.2-8.6-49.1c0,0,0,0-2.4,1.2c0,0,13.5,19.6,9.8,40.5c0,0,0,2.4-1.2-1.2C827.6,439.5,821.5,423.5,817.8,418.6"/>
				<path id="path3382" class="st0" d="M806.8,437c0,1.2-2.5,1.2-2.5,2.5c4.9,8.6,8.6,17.2,13.5,23.3c6.1,6.1,7.4,1.2,7.4-1.2
					c3.7-16-4.9-28.3-8.6-35.6c0,0-1.2,1.2-2.4,2.4c0,0,11,13.5,8.6,30.7c0,0-1.2,2.5-3.7,0C812.9,453,810.4,446.8,806.8,437"/>
				<path id="path3384" class="st0" d="M789.6,446.8c0,0-3.7,1.2-2.4,2.5c6.1,7.4,12.3,17.2,19.7,22.1c6.1,4.9,7.4,0,6.1-2.5
					c-3.7-17.2-6.1-18.4-11.1-27c0,0-2.4,0-3.7,2.5c0,0,8.6,4.9,12.3,22.1c0,0-1.2,2.4-3.7,1.2C799.4,462.8,794.5,455.4,789.6,446.8
					"/>
				<path id="path3386" class="st0" d="M809.2,477.5c0,0-7.4-3.7-4.9-1.2c6.1,6.1,9.8,13.5,16,18.4c6.2,4.9,7.4,0,7.4-2.5
					c-1.2-7.4-3.7-13.5-9.8-22.1c0,0,0,2.5-1.2,4.9c0,0,3.7,6.1,7.4,14.7c0,0-1.2,2.5-2.5,1.2C815.4,487.3,814.1,484.9,809.2,477.5"
					/>
				<path id="path3388" class="st0" d="M822.7,468.9c1.2,1.2-2.5-1.2-1.2,0c1.2,4.9,6.1,13.5,11.1,18.4c3.7,3.7,3.7,1.2,3.7-1.2
					c-2.5-11-4.9-13.5-7.4-20.9c0,0-1.2,1.2-2.4,2.5c0,0,2.4,2.4,6.1,13.5c0,0,0,3.7-1.2,1.2C827.6,477.5,826.4,476.3,822.7,468.9"
					/>
				<path id="path3390" class="st0" d="M773.6,451.7c0,1.2-6.1,0-4.9,1.2c8.6,6.1,18.4,18.4,24.5,24.6c4.9,2.5,6.2-1.2,6.2-3.7
					c-1.2-4.9-4.9-11.1-14.7-23.3c0,0-2.4,0-2.4,1.2c0,0,4.9,2.4,13.5,18.4c0,0-1.2,3.7-2.5,2.5C787.1,467.7,781,460.3,773.6,451.7"
					/>
				<path id="path229" class="st0" d="M788.3,369.5c0,1.2-1.2,0-1.2,1.2c0,3.7,1.2,9.8,4.9,13.5c1.2,0,3.7,0,4.9-1.2
					c1.2-2.5,2.5-4.9,1.2-7.4c1.2-1.2-3.7-12.3-4.9-12.3c-1.2,0-1.2,1.2-1.2,3.7c0,0,2.5,6.1,2.5,7.4c1.2,2.5,1.2,2.5,0,4.9
					c0,0-1.2,1.2-1.2,0C790.8,376.8,788.3,373.1,788.3,369.5"/>
				<path id="path231" class="st0" d="M799.4,383l-1.2,3.7c6.1,7.4,17.2,25.8,18.4,23.3c1.2-2.4,1.2-6.1,0-9.8
					c0,0-13.5-23.3-14.7-23.3c-1.2,0-1.2,2.5,0,3.7c1.2,3.7,12.3,17.2,11.1,19.7l-1.2,1.2C809.2,397.7,799.4,385.4,799.4,383"/>
				<path id="path3394" class="st0" d="M745.3,359.6c-1.2,0,2.5-1.2,2.5,0c0,3.7,0,13.5-4.9,19.6c-2.5,1.2-8.6,2.4-11.1-1.2
					c-1.2-3.7,3.7-17.2,8.6-23.3c0,1.2,1.2,2.5,0,4.9c-2.5,2.4-6.1,12.3-4.9,16c0,0,3.7,2.4,4.9-1.2
					C742.9,371.9,745.3,365.8,745.3,359.6"/>
				<path id="path3396" class="st0" d="M761.3,352.3c0,1.2,3.7-1.2,3.7,0c0,4.9,1.2,18.4-3.7,25.8c-1.2,2.5-12.3,4.9-14.8,1.2
					c-1.2-2.5,2.5-13.5,3.7-20.9c0,1.2,2.5-2.5,2.5,0c-1.2,4.9-3.7,13.5-2.5,17.2c0,1.2,7.4,1.2,8.6-1.2
					C761.3,369.5,762.5,359.6,761.3,352.3"/>
				<path id="path3398" class="st0" d="M761.3,320.3c0,1.2,0-4.9,1.2-2.5c6.2,8.6,12.3,19.6,9.8,25.8c-1.2,2.5-8.6,8.6-12.3,4.9
					c-1.2-2.5-2.5-13.5-2.5-20.9c0,1.2,0-3.7,1.2-1.2c1.2,4.9,2.5,12.3,3.7,17.2c1.2,0,4.9-1.2,6.2-4.9
					C769.9,333.8,765,326.5,761.3,320.3"/>
				<path id="path3400" class="st0" d="M815.4,297c1.2,0-4.9-3.7-2.5-3.7c8.6,2.5,30.7,9.8,33.1,13.5c1.2,2.4,2.5,12.3-2.5,11
					c-2.4,0-20.9-8.6-27-13.5c1.2,0-1.2-3.7,0-2.5c4.9,1.2,20.9,9.8,24.6,11c0,0,1.2-3.7,0-6.1C838.7,303.1,821.5,298.2,815.4,297"
					/>
				<path id="path3402" class="st0" d="M851,319.1c0,1.2-3.7-4.9,1.2-3.7c9.8,2.4,46.7,40.5,47.9,45.4c1.2,7.4-4.9,12.3-9.8,6.1
					c-13.5-13.5-31.9-33.2-40.5-36.8c1.2,1.2-1.2-3.7,1.2-6.1c1.2-2.4,38.1,36.8,40.5,39.3c0,0,3.7,1.2,3.7-2.5
					C893.9,357.2,857.1,322.8,851,319.1"/>
				<path id="path243" class="st0" d="M847.3,337.5c0,0-1.2-4.9,1.2-3.7c8.6,2.4,33.1,30.7,33.1,33.2c0,6.1-8.6,8.6-11,6.1
					c-11-8.6-20.9-18.4-27-22.1c0-2.4,0,3.7,0-4.9c1.2-2.5,25.8,22.1,27,23.3c0,0,7.4,1.2,7.4-3.7C878,363.3,852.2,340,847.3,337.5"
					/>
				<path id="path3405" class="st0" d="M839.9,355.9l1.2-3.7c8.6,2.4,22.1,19.7,22.1,23.3c0,6.1-8.6,8.6-11,6.1
					c-11.1-8.6-12.3-9.8-19.6-12.3c2.4-2.5,2.4-2.5,2.4-4.9c0-1.2,16,11.1,17.2,13.5c0,0,7.4,0,7.4-4.9
					C858.3,371.9,844.8,358.4,839.9,355.9"/>
				<path id="path247" class="st0" d="M830.1,371.9c0,1.2,0-2.5,1.2-2.5c8.6,3.7,13.5,13.5,13.5,16c0,6.1-9.8,7.4-12.3,4.9
					c-9.8-7.4-3.7-3.7-11.1-7.4c1.2-1.2,1.2,0,2.5-2.5c0-2.5,8.6,4.9,11,7.4c0,0,4.9,0,6.1-3.7C841.1,381.7,833.8,374.4,830.1,371.9
					"/>
				<path id="path249" class="st0" d="M864.5,299.5c0,1.2,3.7-4.9,3.7-3.7c45.4,27,52.8,67.5,68.8,76.1c6.1,3.7-18.4,1.2-24.6-3.7
					c-16-12.3-38.1-47.9-60.2-57.7c1.2,1.2-2.5-6.1-2.5-6.1c33.1,12.3,56.5,56.5,65.1,61.4c0,0,9.8,4.9,8.6,0
					C916,348.6,881.6,303.1,864.5,299.5"/>
				<path id="path3409" class="st0" d="M820.3,313c0,1.2-2.4-2.5-1.2-2.5c11,2.5,24.6,9.8,27,13.5c1.2,1.2,1.2,11.1-3.7,11.1
					c-1.2-1.2-12.3-2.4-18.4-7.4c1.2,0,0-1.2-1.2-4.9c0-1.2,14.7,8.6,18.4,7.4c0,0,2.4-3.7,1.2-6.1
					C839.9,320.3,826.4,315.4,820.3,313"/>
				<path id="path3411" class="st0" d="M825.2,333.8c0,0-1.2-3.7,0-2.4c7.4,1.2,13.5,6.1,14.7,9.8c1.2,1.2,0,12.3-3.7,11
					c-6.2-3.7-7.4-1.2-12.3-6.1c0-2.5,0-1.2,0-4.9c0-1.2,9.8,7.4,12.3,6.1c0,0,1.2-3.7,0-6.1C835,338.8,828.9,335.1,825.2,333.8"/>
				<path id="path3413" class="st0" d="M815.4,360.9c1.2,0-1.2,2.5-1.2,2.5c4.9,4.9,8.6,7.4,12.3,6.1c1.2,0,7.4-8.6,6.1-11
					c-1.2-1.2-3.7-4.9-11.1-7.4c0,1.2-1.2,4.9,0,3.7c0,0,6.1,1.2,7.4,4.9c0,0-2.4,6.1-3.7,6.1C822.7,365.8,819,363.3,815.4,360.9"/>
				<path id="path3415" class="st0" d="M805.5,374.4c1.2,0-1.2,1.2,0,2.5c3.7,4.9,4.9,7.4,8.6,7.4c0,0,8.6-8.6,7.4-11
					c0,0-1.2-3.7-8.6-7.4c0,1.2-2.5,4.9-1.2,3.7c0-1.2,6.1,1.2,7.4,4.9c0,0-3.7,4.9-6.1,4.9C810.4,380.5,809.2,376.8,805.5,374.4"/>
				<path id="path3417" class="st0" d="M777.3,343.7c0,1.2,2.5-2.4,3.7,0c3.7,8.6,1.2,19.7-1.2,25.8c-1.2,3.7-8.6,9.8-11,3.7
					c-1.2-2.5-1.2-14.7,0-23.3c0,1.2,2.4-2.5,2.4,0c0,4.9-1.2,22.1,1.2,20.9c1.2,0,3.7-1.2,6.1-4.9
					C779.7,360.9,778.5,351,777.3,343.7"/>
				<path id="path3419" class="st0" d="M838.7,443.1c2.5,1.2,0,3.7,1.2,4.9c9.8,7.3,49.1,35.6,57.7,38.1c3.7,1.2,22.1-4.9,16-9.8
					c-2.5-2.5-65.1-40.5-74.9-44.2c2.5,1.2,0,2.5,1.2,3.7c4.9,2.5,71.2,41.8,70,43c-1.2,0-7.4,4.9-12.3,2.4
					C891.5,480,846,449.3,838.7,443.1"/>
				<path id="path263" class="st0" d="M837.4,455.4c1.2,0-2.4,1.2-1.2,2.5c8.6,7.4,36.8,31.9,43,33.1c2.4,1.2,17.2,1.2,13.5-3.7
					c-2.4-1.2-7.4-2.4-3.7-1.2c1.2,0-6.1,2.5-9.8,1.2C874.3,484.9,842.4,460.3,837.4,455.4"/>
				<path id="path265" class="st0" d="M832.6,462.8c0,0-4.9,0-1.2,2.5c6.1,4.9,29.5,27,34.4,29.5c1.2,0,12.3,0,11.1-1.2
					c-1.2-1.2-3.7-1.2-3.7-2.5c0,0-3.7,1.2-7.4,0C863.2,489.8,836.2,466.5,832.6,462.8"/>
				<path id="path3423" class="st0" d="M838.7,450.5c1.2,0-2.4,1.2,1.2,3.7c4.9,4.9,41.7,29.5,40.5,29.5c0-1.2,4.9,0,3.7,0
					C881.6,482.4,843.6,455.4,838.7,450.5"/>
				<path id="path3425" class="st0" d="M835,459.1c0,0-2.4,0-1.2,2.5c3.7,4.9,31.9,27,33.2,27c0-1.2,3.7,0,2.5,0
					C866.9,487.3,837.4,462.8,835,459.1"/>
				<path id="path3427" class="st0" d="M835,471.4c0,0,0,3.7,1.2,4.9c7.4,11,18.4,17.2,19.6,18.4c4.9,1.2,4.9-1.2,3.7-1.2
					C853.4,488.6,855.9,493.5,835,471.4"/>
				<path id="path3429" class="st0" d="M838.7,437c1.2,1.2-2.4,1.2,2.5,4.9c3.7,4.9,55.3,36.9,55.3,36.9c0-1.2,4.9-1.2,4.9-1.2
					C898.9,476.3,843.6,441.9,838.7,437"/>
				<path id="path3431" class="st0" d="M765,314.2c0,0-2.4-6.2,1.2-3.7c6.1,6.1,18.4,16,18.4,23.3c-1.2,2.4-9.8,9.8-9.8,7.4
					c0-3.7,0-2.5,0-3.7c0,0,4.9-2.4,4.9-6.1C779.7,327.7,769.9,317.9,765,314.2"/>
				<path id="path3433" class="st0" d="M730.6,359.6c1.2,1.2,0-2.5-1.2,0c-4.9,4.9-9.8,11-7.4,14.7c1.2,3.7,8.6,4.9,8.6,3.7
					c0-2.4,0-2.4-1.2-2.4c0,0-3.7-1.2-4.9-2.5C724.5,370.7,728.1,363.3,730.6,359.6"/>
				<path id="path3435" class="st0" d="M799.4,480c0,0-3.7,1.2-1.2,3.7c2.4,3.7,6.1,8.6,8.6,11.1c2.5,1.2,4.9-2.5,4.9-2.5
					c0-2.5,0-2.5-1.2-2.5c0,0-2.4,1.2-3.7,0C805.5,488.6,801.8,483.7,799.4,480"/>
				<path id="path281" class="st0" d="M783.4,340c-1.2,1.2,0-4.9,1.2-1.2c2.5,8.6,7.4,24.6,1.2,29.5c-2.5,1.2-3.7,2.4-2.5,0
					c0-1.2,0-3.7,0-3.7s0,1.2,1.2-1.2C787.1,359.6,784.6,347.3,783.4,340"/>
				<path id="path283" class="st0" d="M784.6,322.8c-1.2,0,0,2.5-1.2,3.7c0,0-2.4-1.2-2.4-3.7c-7.4-28.2-38.1-20.9-38.1-27
					c0-7.4,0-11,2.4-16c0-1.2,4.9-1.2,9.8-2.4c4.9,0,0,4.9-1.2,3.7c-1.2,0-4.9,0-6.1,2.4c-1.2,2.5-2.5,7.4,0,9.8
					C749,295.8,776,292.1,784.6,322.8"/>
				<path id="path3439" class="st0" d="M801.8,314.2c2.5,0,6.2,18.4,6.2,24.6c-1.2,1.2-9.8,18.4-16,20.9v-7.4
					c4.9-1.2,9.8-11,9.8-14.7c0-12.3-1.2-14.7-4.9-22.1c-9.8-27-34.4-23.3-36.8-29.5c-2.5-6.1,0-9.8,2.4-14.7
					c0-1.2,49.1-9.8,92.1,16c2.5,1.2,8.6,3.7,14.8,2.4c1.2,0-8.6,8.6-14.8,9.8c-2.4,1.2-9.8,3.7-16,0c0,0-1.2-4.9-1.2-6.1
					c1.2-1.2,6.1,0,4.9,0c-1.2,0,0,3.7,1.2,3.7c3.7,0,12.3-2.4,12.3-2.4c-31.9-24.6-89.6-22.1-89.6-19.7c-1.2,3.7-2.4,7.4,0,8.6
					C767.5,286,794.5,284.7,801.8,314.2"/>
				<path id="path3441" class="st0" d="M719.6,332.6c0,0,0,2.4,2.5,2.4c6.1-2.4,12.3-6.1,8.6-11.1c-1.2,0-6.1-1.2-7.4,0
					c-2.5,2.5-11.1,6.1-17.2,9.8c1.2,0-3.7,2.4,1.2,2.4c6.1-1.2,20.9-13.5,20.9-8.6C726.9,328.9,725.7,328.9,719.6,332.6"/>
				<path id="path3443" class="st0" d="M778.5,304.4h3.7l1.2,2.4c-1.2,0-2.4,1.2-3.7,0L778.5,304.4"/>
				<path id="path3445" class="st0" d="M784.6,284.7h4.9l3.7,2.5c-2.4,0-3.7,0-6.1,0L784.6,284.7"/>
				<path id="path3447" class="st0" d="M784.6,319.1h3.7l1.2,4.9c-1.2,0-2.4,0-3.7-1.2L784.6,319.1"/>
				<path id="path3449" class="st0" d="M788.3,337.5h2.5l1.2,2.5c-1.2,0-1.2,1.2-2.5,1.2L788.3,337.5"/>
				<path id="path297" class="st0" d="M798.2,358.4c3.7,2.4,7.4,4.9,9.8,8.6c0,1.2-2.5,3.7-4.9,6.1c-1.2-1.2-1.2-2.5-2.5-3.7
					c1.2-1.2,1.2-1.2,2.5-2.5c-1.2-2.5-3.7-3.7-7.4-6.1C796.9,360.9,798.2,359.6,798.2,358.4"/>
				<path id="path299" class="st0" d="M819,385.4c4.9,1.2,8.6,6.1,11,8.6c0,2.4-2.5,3.7-4.9,6.1c-6.1,9.8-3.7,2.5-3.7-1.2
					c0-1.2,2.5-4.9,3.7-4.9c-2.4-2.5-4.9-4.9-7.4-6.2C817.8,386.7,819,385.4,819,385.4"/>
				<path id="path3453" class="st0" d="M806.8,347.3c2.5,2.5,6.1,3.7,9.8,4.9h1.2c-2.4,4.9-4.9,8.6-8.6,12.3
					c-3.7-2.4-6.2-4.9-8.6-7.4c0-1.2,1.2-1.2,1.2-2.5c1.2,2.5,4.9,3.7,7.4,4.9c0-1.2,1.2-2.5,2.4-4.9c-2.4-1.2-4.9-3.7-6.1-4.9
					C805.5,348.6,805.5,348.6,806.8,347.3"/>
				<path id="path3455" class="st0" d="M809.2,330.2c3.7,1.2,6.1,3.7,9.8,2.5c1.2,0,1.2,0,1.2-1.2c1.2,6.1,1.2,14.7-1.2,17.2
					c-3.7,0-6.1-1.2-9.8-2.5c0-1.2,0-3.7,1.2-4.9c2.5,1.2,3.7,2.4,6.1,2.4c0-2.4,0-4.9,0-7.4c-2.4,0-4.9-1.2-7.3-2.4
					C810.4,332.6,809.2,332.6,809.2,330.2"/>
				<path id="path3457" class="st0" d="M805.5,310.5c3.7,1.2,6.1,2.5,8.6,1.2c1.2,0,1.2-1.2,1.2-1.2c2.4,6.1,4.9,14.7,4.9,18.4
					c-3.7,1.2-8.6-1.2-12.3-1.2c0-2.4,0-3.7,0-4.9c2.4,0,4.9,1.2,7.4,0c-1.2-2.5-1.2-6.1-1.2-7.4c-3.7,0-4.9-1.2-7.4-1.2
					C806.8,313,805.5,313,805.5,310.5"/>
				<path id="path3459" class="st0" d="M769.9,278.6c3.7-1.2,14.7,0,18.4,0c0-1.2,2.5,0,3.7-1.2c4.9,3.7,12.3,11,14.7,14.7
					c-2.5,3.7-7.4,0-11,1.2c-2.5-2.5-2.5-2.5-2.5-2.5c2.5-1.2,4.9,0,7.4-1.2c-2.4-1.2-7.4-4.9-7.4-7.4c-2.4,0-17.2-1.2-19.6,0
					C772.4,281,771.1,279.8,769.9,278.6"/>
				<path id="path3461" class="st0" d="M798.2,295.8c3.7,0,4.9,0,8.6,0c1.2-1.2,1.2-1.2,1.2-2.5c3.7,4.9,6.1,11.1,6.1,14.7
					c-3.7,1.2-6.1,0-9.8-1.2c0-1.2-1.2-2.4-1.2-3.7c2.5,1.2,4.9,1.2,6.2,0c0-1.2-1.2-3.7-1.2-4.9c-2.5,0-4.9,0-7.4,1.2
					C800.6,298.2,798.2,297,798.2,295.8"/>
				<path id="path3463" class="st0" d="M698.7,367c0,1.2,1.2-1.2,0-3.7c0,0-1.2,2.5-2.5,3.7c-8.6,9.8-23.3,12.3-29.5,28.3
					c-4.9,11-4.9,23.3,0,34.4c6.1,13.5,33.2,8.6,46.7,8.6c3.7,0,1.2,6.1,1.2,8.6c1.2,0,3.7-4.9,3.7-4.9c2.5-6.1-2.4-8.6-3.7-8.6
					c-23.3,3.7-36.8,2.4-41.7-7.4c-8.6-13.5-6.1-22.1-1.2-29.5C682.7,380.5,686.4,385.4,698.7,367"/>
				<path id="path3465" class="st0" d="M932,378c0,4.9,3.7,11.1,4.9,17.2c1.2,2.4,2.5,6.1,2.5,8.6c-3.7,27,0,73.7-6.1,77.4
					c0-1.2-1.2-2.4-1.2-3.7c1.2-22.1-8.6-44.2-9.8-65.1c0-2.5-1.2-4.9-1.2-6.1c-4.9-7.4-13.5-7.4-18.4-34.4c0,0,2.5-3.7,2.5-2.5
					c1.2,2.5,2.5,0,2.5,2.5c2.4,20.9,12.3,22.1,17.2,30.7c0,1.2,2.4,3.7,2.4,7.4c-1.2,7.4,4.9,33.2,4.9,39.3
					c1.2,2.5,2.5,3.7,2.5,1.2c-1.2-17.2,0-29.5,0-43c0-1.2,0-3.7,0-4.9c0-4.9-3.7-9.8-7.4-25.8L932,378"/>
				<path id="path3467" class="st0" d="M918.5,410c3.7,27,6.2,33.2,3.7,61.4c0-1.2-1.2-2.5-1.2-3.7c-1.2-19.6-12.3-35.6-16-56.5
					c0,0,1.2-4.9-2.5-8.6c-4.9-6.1-9.8-7.4-20.9-27c1.2-1.2,4.9-7.4,4.9-1.2c2.4,14.7,14.7,18.4,20.9,25.8c0,1.2,1.2,6.1,1.2,9.8
					c1.2,6.1,7.4,23.3,7.4,28.3c0,2.5,2.4,3.7,2.4,1.2c0-17.2-3.7-20.9-6.1-34.4C911.1,402.6,917.3,407.5,918.5,410"/>
				<path id="path3469" class="st0" d="M898.9,405.1c6.1,20.9,11,30.7,9.8,58.9c0-1.2-1.2,1.2-2.5-3.7c-1.2-16-12.3-25.8-17.2-50.4
					c0-3.7-2.4-2.4-3.7-4.9c-7.4-9.8-8.6-2.4-20.9-22.1c1.2-1.2,0-7.4,3.7-3.7c9.8,16,13.5,13.5,18.4,20.9c1.2,1.2,2.4,1.2,4.9,3.7
					c4.9,7.4,4.9,20.9,9.8,29.5c1.2,2.4,2.5,3.7,2.5,1.2c-2.5-17.2-4.9-14.7-8.6-31.9C895.2,400.2,898.9,403.8,898.9,405.1"/>
				<path id="path3471" class="st0" d="M882.9,406.3c4.9,14.7,4.9,14.7,7.4,35.6c-2.5,0-2.5-1.2-3.7-2.4
					c-2.5-14.7-6.1-14.7-12.3-25.8c0-1.2-3.7-4.9-6.1-4.9c-7.4-4.9-9.8-2.4-20.9-16c0-1.2,1.2-7.4,3.7-3.7c4.9,9.8,6.1,7.4,11,11
					c1.2,0,6.1,1.2,7.4,2.5c6.1,2.4,12.3,13.5,13.5,19.7c0,0,2.5,1.2,1.2-2.5c-4.9-12.3,0-6.1-6.1-16
					C876.8,402.6,882.9,405.1,882.9,406.3"/>
				<path id="path3473" class="st0" d="M863.2,408.7c7.4,9.8,7.4,9.8,12.3,25.8c-2.5,0-2.5-1.2-3.7-1.2c-7.4-11-9.8-11-14.7-18.4
					c0-1.2-2.5-3.7-3.7-3.7c-6.2-2.5-12.3-2.5-22.1-9.8c0-1.2,2.5-6.1,3.7-3.7c6.1,7.4,8.6,4.9,12.3,7.4c1.2,0,3.7,0,3.7,0
					c6.1,1.2,11,11.1,14.7,16c0,0,2.5,0,1.2-2.5c-6.1-9.8-1.2-2.5-7.4-9.8C859.6,408.7,863.2,407.5,863.2,408.7"/>
				<path id="path3475" class="st0" d="M919.7,378c1.2,4.9,4.9,12.3,4.9,14.7c-2.5,0-11-12.3-12.3-19.6
					C911.1,373.1,919.7,375.6,919.7,378"/>
				<path id="path3477" class="st0" d="M896.4,373.1c1.2,3.7,3.7,12.3,7.4,19.6c-2.5,0-12.3-13.5-12.3-20.9
					C890.3,371.9,896.4,371.9,896.4,373.1"/>
				<path id="path3479" class="st0" d="M878,376.8c2.5,3.7,6.1,11,9.8,18.4c-4.9-1.2-11-11.1-14.7-17.2
					C871.8,378,876.8,376.8,878,376.8"/>
				<path id="path3481" class="st0" d="M859.6,385.4c1.2,3.7,3.7,7.4,9.8,12.3c-3.7,0-12.3-7.4-14.8-12.3H859.6"/>
				<path id="path3483" class="st0" d="M842.4,394c1.2,1.2,2.4,3.7,6.1,7.4c-2.5-1.2-8.6-3.7-9.8-6.1L842.4,394"/>
				<path id="path3485" class="st0" d="M767.5,454.2c0,6.1,1.2,8.6,1.2,8.6c1.2,6.1,2.4,8.6,4.9,13.5c1.2,1.2,2.5,1.2,4.9,1.2
					s1.2-7.4,1.2-11c0,0-1.2-1.2-2.5-1.2c0,1.2,1.2,6.1,0,8.6H776c-2.5-1.2-2.5-4.9-3.7-4.9c-1.2-3.7-2.4-7.4-3.7-11
					C768.7,457.9,766.2,454.2,767.5,454.2"/>
				<path id="path3487" class="st0" d="M750.3,467.7c-3.7,0-11.1-1.2-12.3-1.2c-3.7,0-4.9,0-7.3,1.2c-1.2,1.2-3.7,2.4-1.2,3.7
					c1.2,1.2,11.1,1.2,16,2.5v-1.2c0-1.2-8.6-2.5-11-2.5c0,0-1.2,0-1.2-1.2c1.2-1.2,1.2-1.2,2.4-1.2c1.2,0,8.6,0,12.3,2.4
					L750.3,467.7"/>
				<path id="path3489" class="st0" d="M750.3,455.4c-1.2-1.2-4.9,0-4.9,0c-2.4,1.2-1.2,0-3.7,1.2c-1.2,0-2.5,1.2-2.5,6.1
					c1.2,2.5,8.6,1.2,13.5,3.7c0-1.2,1.2-1.2,1.2-1.2c0-1.2-8.6-2.5-9.8-3.7c-1.2-1.2-1.2,0,0-2.5v-1.2c2.4,0,2.4,0,7.4,0
					C751.5,456.6,751.5,454.2,750.3,455.4"/>
				<path id="path3491" class="st0" d="M749,451.7c-1.2,0-6.1-2.5-6.1-2.5c-2.5-2.5-1.2-1.2-2.5-2.5c0-1.2-2.5-4.9-2.5-4.9
					c2.5-2.4,4.9,1.2,8.6,1.2v1.2c0,1.2-1.2,0-2.4,0c-2.5-1.2-1.2,0-1.2,1.2l1.2,1.2c1.2,1.2,1.2,1.2,4.9,2.5V451.7"/>
				<path id="path3493" class="st0" d="M765,462.8c-2.4,0-6.1,2.5-6.1,2.5c-4.9,3.7-7.4,4.9-9.8,8.6c-1.2,1.2-2.5,4.9,1.2,6.1
					c0,1.2,14.7-3.7,18.4-3.7c0-1.2-1.2-2.5-1.2-3.7c-1.2,0-12.3,4.9-14.7,3.7v-1.2c0-3.7,2.4-3.7,2.4-4.9c3.7-2.4,6.2-3.7,9.8-4.9
					C765,465.2,765,461.6,765,462.8"/>
				<path id="path3495" class="st0" d="M749,440.7c0,3.7,2.5,9.8,2.5,9.8c2.5,4.9,3.7,4.9,6.1,8.6c1.2,1.2,2.5,1.2,4.9,1.2
					c2.4,0,1.2-6.1,1.2-8.6c-1.2,0-1.2-1.2-2.4-1.2c0,0,0,2.5,0,6.1c0,0,1.2,1.2-1.2,0c-2.5,0-3.7-2.5-3.7-2.5
					c-1.2-2.4-3.7-7.4-3.7-11L749,440.7"/>
				<path id="path3497" class="st0" d="M774.8,467.7c0-1.2,0-3.7,0-6.1c-1.2,0-2.5-1.2-2.5-1.2v2.4c0,0,0,2.5,1.2,2.5L774.8,467.7"
					/>
				<path id="path3499" class="st0" d="M757.6,473.8c1.2-1.2,7.3-3.7,8.6-3.7c0-1.2,0-1.2,0-1.2c-1.2-1.2-2.4,0-3.7,0
					c0,0-2.4,1.2-2.4,2.5C758.9,471.4,757.6,473.8,757.6,473.8"/>
				<path id="path3501" class="st0" d="M756.4,462.8c-8.6,1.2-7.4-2.4-9.8-2.4c0-1.2,0-1.2,0-1.2c2.5,0,3.7,1.2,6.2,1.2
					c0,0,0,0,3.7,1.2C757.6,461.6,756.4,462.8,756.4,462.8"/>
				<path id="path3503" class="st0" d="M707.3,453c-1.2-2.5-1.2-2.5-1.2-4.9c1.2-2.5,4.9-6.2,6.1-6.2c0,1.2-1.2,2.5,0,6.2
					c0,1.2,2.5,1.2,1.2,3.7C711,455.4,707.3,455.4,707.3,453"/>
				<path id="path3505" class="st0" d="M707.3,468.9c1.2,1.2,2.5,1.2,3.7,2.5c2.5,0,3.7-2.5,3.7-2.5c0-1.2-3.7,0-3.7-2.4
					c-1.2,0-3.7,0-4.9,0C703.6,468.9,706.1,468.9,707.3,468.9"/>
				<path id="path3507" class="st0" d="M702.4,471.4c1.2,1.2,1.2,1.2,2.5,1.2c1.2,1.2,3.7-1.2,3.7-1.2c-1.2,0-3.7,0-3.7-1.2
					c0,0-2.5-1.2-3.7-1.2C699.9,470.1,701.1,471.4,702.4,471.4"/>
				<path id="path3509" class="st0" d="M697.5,473.8c1.2,1.2,1.2,1.2,1.2,1.2c1.2,0,3.7-1.2,3.7-1.2c-1.2,0-2.4,0-3.7-1.2
					c0,0-1.2-1.2-2.5,0C695,472.6,696.2,473.8,697.5,473.8"/>
				<path id="path3511" class="st0" d="M701.1,462.8c-3.7-4.9,1.2-6.1-3.7-13.5c0-3.7,0-2.5,1.2-3.7c1.2-1.2,4.9-1.2,7.4-2.4
					c-1.2,1.2-6.1,7.4,1.2,14.7c0,0-1.2,2.4,0,7.4c-1.2,0-2.5,0-2.5,0C702.4,465.2,701.1,464,701.1,462.8"/>
				<path id="path3513" class="st0" d="M701.1,468.9c0-1.2,0-2.4,0-2.4c-2.4-1.2-4.9-4.9-3.7-12.3c-1.2-2.4-1.2-4.9-2.5-4.9
					c-1.2,0-3.7,3.7-3.7,4.9c2.5,1.2,2.5,3.7,3.7,9.8c0,0,0,1.2,2.5,4.9C698.7,468.9,699.9,468.9,701.1,468.9"/>
				<path id="path3515" class="st0" d="M696.2,471.4c-1.2-1.2,0-1.2-1.2-2.5c-1.2-2.4-2.5-3.7-2.5-9.8c-1.2-1.2-1.2-2.5-2.4-2.5
					c-1.2-1.2-2.5,2.5-2.5,3.7c2.5,1.2,7.4,7.4,2.5,7.4c-1.2,0,2.4,1.2,3.7,2.4C695,471.4,695,471.4,696.2,471.4"/>
				<path id="path3517" class="st0" d="M758.9,451.7c-1.2-1.2-1.2-2.5-1.2-4.9c0,0-1.2-1.2-2.5-1.2v2.5l1.2,1.2
					C756.4,450.5,758.9,451.7,758.9,451.7"/>
				<path id="path3519" class="st0" d="M733.1,446.8c1.2,1.2,2.4,1.2,2.4,4.9c-1.2,3.7-6.1,6.1-12.3,12.3c-1.2,1.2-2.5,1.2-3.7,1.2
					c-2.4-2.5-4.9-2.5-4.9-4.9v-1.2c2.5-1.2,4.9,1.2,7.4,1.2l-1.2-3.7c0-1.2-2.5-2.5-4.9-2.5c-1.2,1.2-4.9,2.5-6.1,4.9
					c-1.2,1.2,0,4.9,1.2,4.9c1.2,1.2,6.2,4.9,8.6,4.9c1.2,0,3.7,1.2,7.4-1.2c1.2-3.7,9.8-6.1,12.3-14.7c0-2.5,0-2.5,0-4.9
					c-1.2-1.2-3.7-3.7-4.9-3.7L733.1,446.8"/>
				<path id="path3521" class="st0" d="M644.7,391.6c7.4,2.5,12.3,9.8,12.3,12.3c2.5,8.6-4.9,18.4-2.4,24.6
					c3.7,8.6,11,6.2,18.4,14.7c7.4,8.6,0,12.3,12.3,18.4c0,0,1.2,1.2,2.5,2.4c-12.3,0-13.5-7.4-16-17.2c-3.7-8.6-14.7-6.1-19.6-17.2
					c-1.2-9.8,3.7-14.7,2.4-23.3c1.2-6.1-9.8-12.3-11-12.3S644.7,392.8,644.7,391.6"/>
				<path id="path3523" class="st0" d="M639.8,397.7c6.1,2.5,8.6,6.1,8.6,8.6c2.5,8.6-6.1,17.2-3.7,24.6c2.4,7.4,9.8,8.6,19.6,17.2
					c8.6,7.3-1.2,28.2,25.8,23.3c1.2,1.2,3.7,3.7,3.7,4.9c-25.8,8.6-28.2-14.7-30.7-25.8c-7.4-6.1-16-6.1-22.1-17.2
					c-2.5-13.5,6.1-16,4.9-24.6c0-4.9-3.7-8.6-6.1-8.6C638.5,400.2,639.8,397.7,639.8,397.7"/>
				<path id="path3525" class="st0" d="M642.2,390.3c-2.5,2.5-6.2,4.9-4.9,11l1.2,2.5c-1.2,0-3.7,0-4.9-1.2c0-6.1-2.5-7.4,3.7-13.5
					C639.8,387.9,641,389.1,642.2,390.3"/>
				<path id="path3527" class="st0" d="M634.8,387.9c-2.5,2.5-6.1,4.9-4.9,11.1l1.2,2.4c-1.2,0-3.7,0-4.9-1.2
					c0-6.1-2.5-7.4,3.7-13.5C632.4,386.7,633.6,387.9,634.8,387.9"/>
				<path id="path3529" class="st0" d="M627.5,386.7c-2.4,2.4-6.1,4.9-3.7,9.8v3.7c-1.2,1.2-2.5,0-3.7-1.2c-2.4-3.7-3.7-4.9-3.7-7.4
					c0-2.4,3.7-3.7,6.1-6.1C625,384.2,626.2,385.4,627.5,386.7"/>
				<path id="path3531" class="st0" d="M801.8,498.4c-2.4,0-4.9,0-6.1,1.2c0,0-2.5,11,1.2,11c1.2-1.2,2.5,0,3.7-2.5
					c0,0,0-6.1,1.2-6.1c0,0,4.9-1.2,6.2-1.2c2.4,0,4.9-1.2,4.9-1.2c1.2,0,2.5,0,3.7,0c-3.7,2.5-7.3,8.6-11,8.6c0,0-3.7,2.5-3.7,3.7
					c0,2.4,2.5,4.9,4.9,7.4c1.2,1.2,4.9,1.2,7.4-3.7c2.4-1.2,8.6-11.1,11-11.1c0,0,3.7-1.2,4.9,0c4.9,0,4.9,3.7,6.2,3.7
					c0,2.5,1.2,3.7,6.1,4.9c9.8-1.2,9.8,1.2,13.5-6.1c3.7-3.7,1.2-3.7,1.2-6.1c-1.2-1.2-3.7-3.7-6.1-3.7c-7.4,0-11.1-1.2-12.3-4.9
					c0,0-2.4-1.2-3.7-1.2c2.4,3.7,3.7,6.1,7.4,7.4c1.2,1.2,6.1,0,6.1,3.7c-1.2,3.7-3.7,4.9-3.7,4.9c-3.7,0-3.7-3.7-4.9-4.9
					c-1.2,0-8.6-4.9-8.6-6.2c0,0-2.5,3.7-6.1,3.7c-2.4,0-12.3,11-13.5,13.5c-2.4,0-3.7-1.2-2.4-2.5c1.2-1.2,8.6-8.6,9.8-9.8
					c1.2-1.2,0-2.5,0-3.7c0,0-1.2-1.2-2.5-1.2C811.7,495.9,803.1,499.6,801.8,498.4"/>
				<path id="path3533" class="st0" d="M887.8,504.5v-6.1l-4.9,4.9l-1.2,2.5l-6.1,3.7l-2.5-4.9v7.4c0,2.4-2.5,7.4-3.7,9.8
					c-2.5,6.1-8.6,6.1-12.3,3.7l-1.2,3.7c19.7,3.7,13.5-11.1,22.1-16c0,0,0-1.2,1.2-2.5c3.7-2.5,12.3-3.7,14.7-2.5
					c1.2,1.2,1.2-2.4,2.5-2.4C896.4,504.5,889,504.5,887.8,504.5"/>
				<path id="path3535" class="st0" d="M906.2,525.4l6.1,1.2c-2.5,1.2-4.9,1.2-8.6,2.5c-2.5,2.4-2.5,3.7-9.8,6.1l4.9,4.9
					c-3.7-1.2-7.4-2.5-9.8-2.5c-3.7,4.9-23.3,1.2-23.3,2.5v6.1c0,1.2-3.7-6.1-7.4-7.4c-3.7-1.2-9.8-2.5-9.8-1.2l2.5-3.7
					c16,1.2,23.3,4.9,39.3,0c6.1-3.7,12.3-9.8,12.3-12.3c0-1.2,2.5-1.2,3.7-1.2C907.5,520.5,907.5,524.2,906.2,525.4"/>
				<path id="path3537" class="st0" d="M880.4,529.1c-2.5,0-6.2-1.2-7.4-1.2c-3.7,3.7,1.2,4.9,2.5,3.7L880.4,529.1"/>
				<path id="path3539" class="st0" d="M881.6,515.6c-1.2,2.4-3.7,3.7-4.9,4.9c0,4.9,4.9,2.5,4.9,1.2V515.6"/>
				<path id="path3541" class="st0" d="M891.5,516.8c-1.2,2.5-4.9,3.7-6.1,4.9c0,4.9,4.9,2.4,4.9,1.2L891.5,516.8"/>
				<path id="path3543" class="st0" d="M891.5,527.9c-2.4,0-4.9-1.2-6.1-1.2c-2.5,3.7,1.2,4.9,2.5,3.7L891.5,527.9"/>
				<path id="path3545" class="st0" d="M637.3,493.5c-2.4,0-2.4-1.2-4.9-1.2c1.2,4.9,2.5,6.1,6.1,4.9c2.5,2.5,2.5,4.9,8.6,8.6
					c-1.2,1.2-3.7,2.4-4.9,2.4c2.4,2.5,7.4,2.5,8.6,1.2c1.2,2.5,4.9,3.7,8.6,4.9c1.2,0-4.9,4.9-3.7,4.9c3.7,0,6.1-1.2,7.4-3.7
					c1.2,0,13.5,1.2,13.5,1.2c0-1.2,0-1.2,0-3.7c-14.7-2.5-11.1,1.2-24.6-8.6c-6.1-3.7-9.8-11-9.8-13.5c0-3.7,9.8-12.3,12.3-12.3
					c3.7-1.2,6.1,1.2,12.3,4.9c4.9,3.7,9.8,14.7,11,19.6l3.7-2.5c-1.2-3.7-1.2-6.1-2.4-7.4c-1.2-1.2,3.7-4.9,1.2-11.1
					c-1.2,2.5-2.5,3.7-3.7,4.9c-3.7-3.7-8.6-8.6-16-12.3c1.2-3.7-1.2-6.2-6.1-8.6l1.2,8.6C647.1,473.8,634.8,491,637.3,493.5"/>
				<path id="path3547" class="st0" d="M665.5,503.3c2.5,0,6.1,0,7.4,1.2c2.4,3.7-2.5,3.7-3.7,2.5L665.5,503.3"/>
				<path id="path3549" class="st0" d="M665.5,488.6c2.5,2.4,4.9,4.9,4.9,6.1c-1.2,4.9-4.9,1.2-4.9,0V488.6"/>
				<path id="path3551" class="st0" d="M655.7,484.9c1.2,2.4,4.9,3.7,4.9,6.1c-1.2,4.9-4.9,1.2-4.9,0V484.9"/>
				<path id="path3553" class="st0" d="M653.3,495.9c2.5,1.2,4.9,2.5,6.1,2.5c1.2,3.7-2.5,3.7-3.7,2.5L653.3,495.9"/>
				<path id="path3555" class="st0" d="M741.7,537.7c-1.2,2.5-1.2,2.5-3.7,3.7c3.7,0,6.2,0,9.8-2.4c3.7,0,9.8,0,13.5,0
					c0,2.4-1.2,2.4-2.5,4.9c3.7,0,7.4-1.2,7.4-3.7c2.5,1.2,8.6,0,11.1-1.2c2.5-1.2,1.2,4.9,1.2,4.9c3.7-2.4,6.1-3.7,4.9-7.4l6.1-1.2
					c0-1.2,1.2-3.7,0-6.1c-16,7.4-22.1,6.1-35.6,4.9c-2.5,0-12.3-1.2-14.7-3.7c-6.1-3.7-2.4-17.2,0-19.7c2.5-3.7,4.9-6.1,14.7-6.1
					c6.1,0,18.4,7.4,23.3,11.1l1.2-3.7c-3.7-3.7-6.1-4.9-7.4-6.1c-1.2,0,0-6.1-6.2-9.8c0,2.5,0,4.9,0,7.4c-2.4-1.2-8.6-2.5-11-2.5
					c0-3.7-6.1-6.1-9.8-6.1c0,0,2.4,6.1,1.2,6.1c-1.2,0-3.7,1.2-4.9,1.2c-3.7-1.2-2.5-2.5-8.6-1.2l3.7,6.1
					C730.6,513.1,726.9,536.5,741.7,537.7"/>
				<path id="path3557" class="st0" d="M763.8,519.3c3.7,0,6.1,0,8.6,0c2.5,3.7-2.4,4.9-3.7,3.7L763.8,519.3"/>
				<path id="path3559" class="st0" d="M777.3,523c3.7-1.2,6.1-2.5,8.6-2.5c3.7,2.5-1.2,4.9-2.5,4.9L777.3,523"/>
				<path id="path3561" class="st0" d="M758.9,509.5c2.5,1.2,6.1,1.2,7.4,2.5c2.5,4.9-3.7,4.9-3.7,2.4L758.9,509.5"/>
				<path id="path3563" class="st0" d="M746.6,516.8c2.5-1.2,6.2-2.4,8.6-2.4c3.7,2.4-1.2,4.9-2.4,4.9L746.6,516.8"/>
				<path id="path3565" class="st0" d="M754,527.9c2.4-1.2,4.9-2.4,7.4-2.4c3.7,2.4,0,4.9-2.5,4.9L754,527.9"/>
				<path id="path3567" class="st0" d="M682.7,521.7c-1.2,3.7-2.5,6.1-6.1,4.9c3.7,3.7,6.1,1.2,9.8-1.2c3.7,1.2,7.4,3.7,14.7,3.7
					c-1.2,2.4-2.4,3.7-3.7,6.1c4.9-1.2,8.6-2.4,8.6-4.9c2.4,2.5,22.1-2.5,22.1-3.7c-1.2-1.2,0-2.5-1.2-4.9c-14.7,4.9-11,4.9-27,3.7
					c-6.1,0-13.5-4.9-14.7-7.4c-1.2-2.4,2.5-16,4.9-17.2c2.4-2.5,9.8,0,8.6-1.2l1.2-4.9c-2.5,1.2-3.7,1.2-7.4,1.2
					c-1.2-3.7-1.2-3.7-7.4-3.7c2.5,1.2,2.5,3.7,3.7,4.9C681.5,500.8,679.1,521.7,682.7,521.7"/>
				<path id="path3569" class="st0" d="M718.3,516.8c2.5,0,6.1-2.4,8.6-1.2c3.7,2.4-1.2,4.9-2.5,3.7L718.3,516.8"/>
				<path id="path3571" class="st0" d="M720.8,502.1c2.5,1.2,11,6.1,11,8.6c-1.2,1.2-1.2,2.5-2.5,2.5c-2.4-2.5-6.1-6.1-9.8-6.1
					L720.8,502.1"/>
				<path id="path3573" class="st0" d="M692.5,510.7c2.5,0,4.9-2.5,7.4-1.2c3.7,2.5-1.2,4.9-2.5,3.7L692.5,510.7"/>
				<path id="path3575" class="st0" d="M701.1,519.3c2.5,1.2,4.9,0,6.2,1.2c3.7,2.5-1.2,3.7-2.5,2.5L701.1,519.3"/>
				<path id="path3577" class="st0" d="M709.7,494.7v-2.5c-4.9-1.2-7.4,1.2-7.4,7.4c0,6.1,1.2,9.8,4.9,11c3.7,2.5,8.6,1.2,9.8-7.4
					c2.4-8.6-1.2-9.8-7.4-11L709.7,494.7c1.2,1.2,3.7,3.7,2.4,7.4c0,2.4-2.4,4.9-4.9,4.9c-1.2,0-2.5-3.7-1.2-6.1
					C706.1,497.2,707.3,494.7,709.7,494.7"/>
				<path id="path3579" class="st0" d="M702.4,486.1c1.2-2.5,2.5-2.5,4.9-2.5c1.2,2.5,1.2,4.9,0,6.1c0,0-1.2,0-1.2,1.2
					C703.6,489.8,702.4,487.3,702.4,486.1"/>
				<path id="path3581" class="st0" d="M711,483.7c1.2-1.2,3.7-1.2,4.9,0c0,2.5,0,3.7-1.2,6.1c-1.2,0-1.2,0-2.5,0
					C711,487.3,711,484.9,711,483.7"/>
				<path id="path3583" class="st0" d="M718.3,484.9c2.5,0,3.7,1.2,4.9,3.7c-1.2,1.2-2.5,3.7-4.9,3.7c0,0-1.2,0-1.2-1.2
					C717.1,489.8,717.1,487.3,718.3,484.9"/>
				<path id="path3585" class="st0" d="M909.9,505.8l3.7-2.5c-2.5-2.5-7.4-2.5-12.3,1.2c-3.7,2.5-6.1,7.4-3.7,11.1
					c1.2,2.4,7.4,2.4,11.1,0c4.9-3.7,6.1-9.8,4.9-12.3L909.9,505.8c1.2,1.2,0,4.9-2.4,7.4c-2.5,1.2-6.1,1.2-7.4,0
					c-1.2-2.5,0-4.9,2.5-7.4C905,504.5,908.7,504.5,909.9,505.8"/>
				<path id="path3587" class="st0" d="M912.4,492.3c1.2,0,2.5,0,3.7,2.5c-1.2,1.2-2.4,2.4-3.7,3.7c-1.2,0-1.2-1.2-1.2-1.2
					C909.9,495.9,911.1,493.5,912.4,492.3"/>
				<path id="path3589" class="st0" d="M918.5,495.9c1.2,0,2.5,1.2,3.7,3.7c-1.2,1.2-3.7,2.5-4.9,2.5c-1.2,0-1.2,0-1.2-1.2
					C916,499.6,916,497.2,918.5,495.9"/>
				<path id="path3591" class="st0" d="M924.6,503.3c1.2,1.2,1.2,2.5,0,4.9c-2.5,0-3.7,0-6.2-1.2v-1.2
					C921,504.5,922.2,503.3,924.6,503.3"/>
				<path id="path3593" class="st0" d="M925.9,489.8c-1.2,1.2-3.7,2.5-4.9,3.7c1.2,1.2,2.5,2.4,3.7,3.7c1.2-1.2,2.4-2.4,3.7-3.7
					c1.2,1.2,3.7,0,4.9-2.5c1.2-1.2,0-3.7-1.2-4.9c-2.5-1.2-4.9-1.2-4.9,1.2C925.9,488.6,925.9,489.8,925.9,489.8"/>
				<path id="path3595" class="st0" d="M634.8,462.8l-1.2-2.4c3.7-2.4,7.4-2.4,11,2.4c2.4,4.9,3.7,8.6,1.2,12.3
					c-2.5,3.7-7.4,4.9-13.5,0c-6.1-6.2-3.7-11.1,1.2-14.7L634.8,462.8c-1.2,1.2-1.2,4.9,1.2,7.4c2.5,2.5,6.2,3.7,7.4,1.2
					c1.2-1.2,0-3.7-1.2-6.1C639.8,462.8,637.3,461.6,634.8,462.8"/>
				<path id="path3597" class="st0" d="M639.8,449.3c-1.2-1.2-3.7-1.2-4.9,0c0,2.5,0,4.9,2.4,6.1h1.2
					C639.8,454.2,641,451.7,639.8,449.3"/>
				<path id="path3599" class="st0" d="M631.1,451.7c-2.4,0-3.7,0-4.9,2.4c0,2.5,2.5,3.7,3.7,4.9c1.2-1.2,1.2-1.2,2.5-1.2
					C632.4,455.4,631.1,453,631.1,451.7"/>
				<path id="path3601" class="st0" d="M621.3,456.6c-1.2,1.2-2.5,2.5-1.2,4.9c1.2,1.2,3.7,1.2,6.2,1.2v-1.2
					C625,459.1,623.8,457.9,621.3,456.6"/>
				<path id="path3603" class="st0" d="M625,444.4c1.2,0,2.4,2.5,2.4,3.7c0,1.2-1.2,2.4-2.4,2.4c-2.5-1.2-2.5-2.4-3.7-3.7
					c-1.2,0-3.7-2.5-3.7-3.7c-1.2-2.4,0-4.9,2.4-4.9c1.2,0,3.7,1.2,4.9,2.5C625,441.9,625,443.1,625,444.4"/>
				<path id="path3605" class="st0" d="M805.5,538.9c-1.2,3.7-3.7,4.9-4.9,7.4c1.2,4.9,6.2,1.2,6.2,0L805.5,538.9"/>
				<path id="path3607" class="st0" d="M821.5,525.4c-2.5,1.2-7.4,2.4-8.6,3.7c-1.2,4.9,3.7,3.7,4.9,2.4L821.5,525.4"/>
				<path id="path3609" class="st0" d="M838.7,514.4c-3.7,0-7.4,0-9.8,0c-2.4,4.9,3.7,6.1,4.9,4.9L838.7,514.4"/>
				<path id="path3611" class="st0" d="M837.4,526.6c-3.7,0-7.4-1.2-9.8-1.2c-4.9,4.9,1.2,6.1,3.7,4.9L837.4,526.6"/>
				<path id="path3613" class="st0" d="M825.2,511.9c-2.4,2.4-6.1,2.4-7.4,3.7c-1.2,6.1,3.7,3.7,4.9,2.4L825.2,511.9"/>
				<path id="path3615" class="st0" d="M832.6,505.8c-2.5,1.2-4.9,0-4.9,0c-2.4,2.4,0,3.7,1.2,2.4L832.6,505.8"/>
				<path id="path3617" class="st0" d="M796.9,532.8l-4.9-3.7c-3.7,9.8-1.2,22.1,0,33.1c6.1,0,14.7,0,20.9,0
					c0-18.4,7.4-18.4,19.7-22.1c2.4,1.2,13.5,1.2,13.5,1.2c0-1.2-3.7-2.4-3.7-3.7c-1.2-2.5,4.9-4.9,6.1-6.1
					c6.1-4.9,7.4-12.3,6.1-17.2c-2.4,0-4.9,1.2-6.1,1.2c1.2,7.4,1.2,9.8-12.3,18.4c-3.7,2.5-17.2,6.2-19.7,8.6
					c-7.3,3.7-6.1,8.6-7.3,16c0,0-13.5,0-13.5-1.2C795.7,548.8,792,541.4,796.9,532.8"/>
				<path id="path3619" class="st0" d="M825.2,621.2c-1.2,1.2-3.7,0-2.4,2.4c-8.6-1.2-7.4-4.9-16-3.7c1.2-2.5,1.2-3.7,2.5-4.9
					C816.6,613.8,816.6,617.5,825.2,621.2"/>
				<path id="path3621" class="st0" d="M766.2,623.6c0,1.2,3.7,0,2.5,2.4c8.6-1.2,6.1-6.1,14.7-6.1c-1.2-2.5,0-2.5,0-4.9
					C776,615.1,773.6,618.7,766.2,623.6"/>
				<path id="path3623" class="st0" d="M782.2,605.2c0,1.2,0,2.4,0,3.7c-6.2,0-18.4,7.4-22.1,11.1c-1.2-1.2-4.9-7.4-6.1-9.8
					l-1.2,3.7h-7.4l-11-9.8l2.4,9.8l-3.7,1.2l-14.7-9.8l4.9,8.6h-6.1l-14.7-4.9l4.9,4.9l-12.3,3.7l23.3-1.2l-6.1,9.8l9.8-7.3h12.3
					l-7.4,12.3l12.3-12.3h8.6l-2.5,9.8l9.8-12.3l2.5-1.2l1.2,4.9l-13.5,13.5h-4.9l3.7-11.1l-4.9,1.2l-9.8,11.1l-6.1-1.2l-1.2-3.7
					l7.4-7.4l-6.1,1.2l-9.8,6.1l-7.4-1.2l6.1-8.6l-9.8,1.2l-1.2,1.2l-13.5,0l1.2-4.9l11-6.1l-2.5-3.7l6.1-2.4l14.7,4.9l-6.1-8.6
					l8.6,0l12.3,8.6l-2.5-12.3h6.1l9.8,12.3l2.5-4.9h4.9l6.1,4.9C765,607.7,776,606.5,782.2,605.2"/>
				<polyline id="polyline473" class="st0" points="696.2,604 681.5,594.2 680.3,581.9 676.6,580.7 675.4,586.8 672.9,583.1 
					671.7,570.8 663.1,564.7 661.9,577 658.2,570.8 656.9,558.6 652,553.7 650.8,563.5 643.4,554.9 639.8,558.6 642.2,563.5 
					643.4,565.9 634.8,567.2 632.4,569.6 638.5,570.8 647.1,578.2 632.4,577 638.5,583.1 654.5,586.8 655.7,589.3 641,593 
					650.8,600.3 665.5,597.9 665.5,602.8 685.2,601.6 681.5,597.9 669.2,597.9 669.2,594.2 653.3,596.6 650.8,594.2 660.6,593 
					663.1,589.3 655.7,583.1 643.4,580.7 653.3,580.7 653.3,574.5 641,569.6 647.1,568.4 645.9,563.5 653.3,572.1 654.5,562.2 
					655.7,575.8 665.5,585.6 665.5,572.1 669.2,575.8 670.4,589.3 675.4,594.2 677.8,588 679.1,595.4 693.8,606.5 696.2,604 				"/>
				<path id="path3626" class="st0" d="M698.7,602.8c-2.5-3.7-3.7-7.4-1.2-9.8c1.2-1.2,1.2-2.5,0-3.7c-2.5,0-4.9,0-8.6,2.5
					c-1.2,1.2-2.5,2.5,0,3.7C693.8,596.6,695,602.8,698.7,602.8"/>
				<path id="path3628" class="st0" d="M691.3,608.9c-3.7,0-8.6,0-8.6,4.9c-1.2,0-1.2,1.2-3.7,1.2c-1.2-2.4-2.5-4.9-2.5-8.6
					c0-2.5,2.5-3.7,3.7-2.5C683.9,607.7,688.9,605.2,691.3,608.9"/>
				<path id="path3630" class="st0" d="M691.3,589.3c1.2,0,3.7-1.2,3.7-3.7c0-1.2-2.5-2.5-3.7-2.5s-3.7,1.2-3.7,2.5
					C687.6,588,690.1,589.3,691.3,589.3"/>
				<path id="path3632" class="st0" d="M670.4,612.6c-1.2-1.2,0-3.7,1.2-4.9c1.2,0,3.7,0,3.7,1.2c1.2,2.5,1.2,3.7,0,4.9
					C672.9,615.1,671.7,613.8,670.4,612.6"/>
				<path id="path3634" class="st0" d="M636.1,558.6c-1.2-3.7-1.2-8.6,2.5-9.8c1.2-1.2,1.2-1.2,1.2-3.7c-2.5,0-4.9-1.2-9.8,0
					c-1.2,0-2.4,2.5-1.2,3.7C633.6,551.2,632.4,556.1,636.1,558.6"/>
				<path id="path3636" class="st0" d="M629.9,565.9c-3.7-1.2-7.4-2.5-9.8,1.2c0,1.2-1.2,1.2-2.4,0c-1.2-2.5-1.2-4.9,0-8.6
					c1.2-1.2,2.4-2.4,3.7-1.2C623.8,562.2,628.7,562.2,629.9,565.9"/>
				<path id="path3638" class="st0" d="M636.1,536.5c-2.4,0-3.7,1.2-4.9,2.5c0,1.2,0,3.7,2.5,3.7c1.2,1.2,3.7,0,3.7-1.2
					C638.5,538.9,637.3,537.7,636.1,536.5"/>
				<path id="path3640" class="st0" d="M609,562.2c0-1.2,1.2-2.4,2.5-3.7c2.5,0,3.7,1.2,3.7,2.5c1.2,2.5,0,3.7-2.5,3.7
					C611.5,565.9,609,564.7,609,562.2"/>
				<polyline id="polyline491" class="st0" points="638.5,564.7 637.3,561 633.6,559.8 625,550 626.2,531.5 623.8,527.9 618.9,534 
					618.9,513.1 612.7,511.9 609,524.2 606.6,521.7 606.6,509.5 602.9,508.2 600.5,515.6 593.1,508.2 590.6,509.5 591.8,511.9 
					584.5,513.1 590.6,519.3 579.6,520.5 584.5,525.4 596.8,529.1 600.5,531.5 586.9,530.3 589.4,536.5 596.8,540.2 605.4,541.4 
					609,543.8 600.5,543.8 600.5,546.3 607.8,550 625,557.3 621.3,551.2 609,546.3 615.2,545.1 610.3,538.9 593.1,534 607.8,534 
					600.5,525.4 586.9,523 596.8,523 590.6,515.6 595.5,516.8 594.3,513.1 600.5,520.5 602.9,514.4 602.9,525.4 611.5,531.5 
					615.2,516.8 615.2,534 616.4,540.2 622.5,535.2 621.3,551.2 625,557.3 631.1,563.5 638.5,564.7 				"/>
				<path id="path3643" class="st0" d="M598,503.3c1.2-3.7,2.4-7.4,6.1-7.4c1.2-1.2,1.2-1.2,1.2-2.4c-2.5-2.5-3.7-3.7-7.4-4.9
					c-2.5,0-3.7,1.2-3.7,3.7C598,495.9,595.5,500.8,598,503.3"/>
				<path id="path3645" class="st0" d="M586.9,507c-2.5-2.5-6.1-4.9-9.8-2.5c-1.3,0-2.5,0-2.5-1.2c0-2.5,0-4.9,3.7-8.6
					c1.3-1.2,3.7-1.2,3.7,1.2C582,500.8,586.9,503.3,586.9,507"/>
				<path id="path3647" class="st0" d="M605.4,483.7c-1.2-1.2-3.7-1.2-4.9,0c-1.2,1.2-1.2,3.7,1.2,4.9c1.2,1.2,2.4,1.2,3.7,0
					C606.6,486.1,606.6,484.9,605.4,483.7"/>
				<path id="path3649" class="st0" d="M568.5,494.7c1.2-1.2,2.4-2.5,3.7-1.2c2.4,0,3.7,1.2,2.4,3.7c0,1.2-1.2,2.5-3.7,2.5
					C569.8,498.4,568.5,497.2,568.5,494.7"/>
				<polyline id="polyline501" class="st0" points="594.3,507 588.2,491 590.6,486.1 590.6,482.4 586.9,482.4 595.5,476.3 
					595.5,467.7 585.7,471.4 586.9,467.7 596.8,459.1 598,453 586.9,457.9 588.2,454.2 593.1,449.3 590.6,441.9 588.2,443.1 
					583.3,448.1 582,443.1 575.9,446.8 575.9,460.3 569.8,453 567.3,460.3 574.6,473.8 564.8,471.4 564.8,478.8 571,480 
					577.1,484.9 575.9,487.3 584.5,494.7 585.7,489.8 579.6,487.3 580.8,483.7 569.8,476.3 578.3,478.8 578.3,472.6 571,459.1 
					578.3,466.5 579.6,448.1 582,451.7 589.4,448.1 583.3,456.6 582,464 590.6,459.1 580.8,470.1 583.3,475.1 591.8,473.8 
					583.3,481.2 584.5,486.1 588.2,486.1 585.7,489.8 585.7,494.7 590.6,507 594.3,507 				"/>
				<path id="path3652" class="st0" d="M806.8,605.2c6.1,0,19.6,3.7,25.8,6.1c7.4,2.5,25.8-14.7,52.8-16c0,0,2.5,0,2.5,1.2
					c-14.7,0-23.3,11-45.4,16c-1.2,2.4,0,1.2,1.2,2.4c16,2.5,24.6-8.6,41.8-16c0,0,2.5-1.2,6.1,0c-7.4,7.4-29.5,20.9-47.9,20.9
					c-6.1,0-28.2-9.8-36.8-9.8C806.8,607.7,806.8,607.7,806.8,605.2"/>
				<path id="path3654" class="st0" d="M876.8,588c-1.2-1.2-3.7-1.2-4.9-1.2c-6.1,1.2-12.3,3.7-17.2,4.9
					c-8.6,2.5-12.3,8.6-20.9,14.7c-2.5,0-4.9,0-7.4,0c0,1.2,2.4,2.4,2.4,2.4c2.5,1.2,6.1,1.2,7.4,0c14.7-8.6,28.2-13.5,43-16
					c-1.2-1.2-2.5-1.2-2.5-1.2c-2.5-1.2-11.1,1.2-33.2,11.1c0-1.2,0-1.2,0-1.2c6.2-3.7,7.4-6.2,12.3-7.4
					C862,593,871.8,588,876.8,588"/>
				<path id="path3656" class="st0" d="M887.8,611.4c-1.2,0-2.5-1.2-3.7-1.2c-7.4,1.2-9.8,7.4-28.2,11.1c0,0-2.4,1.2-6.1,2.4
					c-2.5,0-6.2,0-7.4,0c0,1.2,1.2,1.2,3.7,2.4c1.2,1.2,2.5,1.2,3.7,2.5c16,3.7,30.7-11,45.4-13.5c-1.2-1.2-1.2-1.2-2.5-1.2
					c-9.8-2.5-29.5,13.5-35.6,11c0,0-1.2-1.2,1.2-1.2C864.5,622.4,876.8,613.8,887.8,611.4"/>
				<path id="path3658" class="st0" d="M903.8,596.6c-1.2-1.2-2.5-1.2-4.9-1.2c-1.2,0-1.2,2.5-1.2,3.7c1.2,1.2,2.5,1.2,4.9,1.2
					c0,2.5,2.5,3.7,3.7,3.7c2.5,0,4.9-1.2,4.9-3.7c0-2.5-2.4-3.7-3.7-3.7C906.2,596.6,905,596.6,903.8,596.6"/>
				<path id="path3660" class="st0" d="M889,580.7c0,1.2,0,3.7,0,4.9c1.2,0,1.2,2.4,1.2,2.4c1.2,0,2.4-2.4,2.4-2.4
					c1.2-2.5,0-3.7,0-4.9c2.5-1.2,2.5-3.7,1.2-6.1c-1.2-1.2-3.7-2.5-4.9-1.2c-2.4,1.2-3.7,3.7-2.4,4.9
					C886.6,579.4,887.8,580.7,889,580.7"/>
				<path id="path3662" class="st0" d="M891.5,593c2.5-6.1,4.9-7.4,12.3-9.8c15.9-24.6,24.6-25.8,36.8-40.5c0,4.9-1.2,6.1-2.5,6.1
					c-6.1,9.8-11.1,6.1-28.3,29.5c0,2.4,1.2,1.2,2.5,1.2c16-13.5,25.8-22.1,31.9-33.2c1.2,2.5,1.2,6.1-3.7,12.3
					c-7.4,8.6-14.7,14.7-25.8,22.1c-4.9,6.2-19.7,7.4-19.7,14.7C893.9,594.2,893.9,594.2,891.5,593"/>
				<path id="path3664" class="st0" d="M924.6,538.9c-6.2,9.8-12.3,13.5-14.7,14.7c-11,8.6-6.1,17.2-8.6,25.8
					c2.5-1.2,1.2-3.7,4.9-4.9c8.6-13.5,6.1-8.6,16-18.4c1.2-1.2,3.7-8.6,1.2-7.4c-14.7,19.6-17.2,18.4-17.2,20.9
					c0,0-3.7,2.4-1.2-1.2c1.2-11,7.4-12.3,7.4-12.3c6.1-4.9,7.4-6.1,11.1-9.8C924.6,543.8,924.6,540.2,924.6,538.9"/>
				<path id="path3666" class="st0" d="M948,557.3c-8.6,11-24.6,23.3-27,25.8c-1.2,0-1.2,1.2-2.5,1.2c-2.4,2.5-7.4,3.7-8.6,3.7
					c0,1.2,3.7,1.2,6.1,1.2c2.4,0,2.4,0,3.7,0c6.1,1.2,12.3-2.4,18.4-7.4c4.9-4.9,9.8-9.8,13.5-16c0,0,1.2-3.7,0-6.1
					c-8.6,14.7-17.2,18.4-24.6,25.8c-2.4,0-4.9,0-2.4-2.5c13.5-8.6,14.7-11.1,20.9-20.9C946.7,561,946.7,557.3,948,557.3"/>
				<path id="path3668" class="st0" d="M960.3,541.4c-1.2,0-2.5,0-4.9,0c0,1.2,0,2.4,0,3.7c2.5,1.2,3.7,1.2,4.9,0
					c1.2,2.5,3.7,2.5,6.1,1.2c1.2-1.2,2.5-2.5,2.5-4.9c-1.2-2.4-3.7-2.4-6.1-2.4C962.7,540.2,961.5,540.2,960.3,541.4"/>
				<path id="path3670" class="st0" d="M936.9,531.5c1.2,2.5,1.2,3.7,3.7,4.9l1.2,1.2c1.2,0,1.2-2.5,1.2-3.7c0-1.2-1.2-2.5-2.4-3.7
					c2.4-1.2,1.2-4.9-1.2-6.1c-1.2-1.2-3.7-1.2-4.9,1.2c-1.2,1.2-1.2,3.7,0,4.9C935.7,531.5,936.9,531.5,936.9,531.5"/>
				<path id="path3672" class="st0" d="M945.5,543.8c0-6.1,2.5-8.6,7.4-13.5c3.7-29.5,16-45.4,18.4-45.4
					c-8.6,13.5-1.2,7.4-13.5,34.4c-1.2,6.1,2.5,2.5,2.5,2.5c7.4-7.4,11.1-27,14.7-43c2.5,2.4,3.7,8.6,2.5,14.7
					c-3.7,11-4.9,23.3-13.5,30.7c-3.7,7.4-17.2,14.7-13.5,20.9C948,545.1,948,545.1,945.5,543.8"/>
				<path id="path3674" class="st0" d="M956.6,483.7c-7.4,13.5-18.4,28.2-6.1,43c1.2-2.5,1.2-3.7,0-8.6c6.1-13.5,12.3-33.1,11-31.9
					c-3.7,7.4-7.4,17.2-12.3,28.2c0-1.2-2.5,3.7-1.2,0C948,500.8,955.3,494.7,956.6,483.7"/>
				<path id="path3676" class="st0" d="M986.1,492.3c-11.1,4.9-6.2,12.3-17.2,30.7c-2.5,1.2-4.9,7.4-8.6,9.8
					c1.2,1.2,3.7-1.2,6.1-1.2c2.5-1.2,7.4-3.7,8.6-4.9c4.9-7.4,14.7-25.8,13.5-34.4c-4.9,16-12.3,28.2-13.5,29.5
					c-6.1,4.9-7.4,7.4-2.5,0C981.1,508.2,979.9,498.4,986.1,492.3"/>
				<path id="path3678" class="st0" d="M986.1,471.4c-1.2,1.2-3.7,1.2-4.9,2.5c0,1.2,0,2.5,1.2,3.7c2.5,0,3.7-1.2,4.9-1.2
					c1.2,1.2,3.7,0,6.1-1.2c1.2-1.2,1.2-3.7,0-4.9c-1.2-2.4-3.7-2.4-6.1-1.2C987.3,470.1,986.1,471.4,986.1,471.4"/>
				<path id="path3680" class="st0" d="M963.9,470.1c0,1.2,1.2,2.5,3.7,3.7c0,0,1.2,1.2,2.4,1.2c0-1.2,0-3.7,0-4.9
					c-1.2-1.2-2.4-1.2-3.7-2.4c1.2-2.5-1.2-3.7-2.5-4.9c-2.4,0-4.9,0-6.1,2.5c0,1.2,1.2,3.7,2.5,4.9
					C961.5,470.1,962.7,470.1,963.9,470.1"/>
				<path id="path3682" class="st0" d="M972.5,476.3c2.5-7.4,1.2-8.6,3.7-14.7c-6.2-25.8,1.2-46.7,3.7-46.7
					c2.4,13.5-6.1,20.9-2.4,34.4c0,6.1,2.4,3.7,4.9,2.5c-1.2-34.4,2.5-13.5,1.2-36.9c6.1,1.2,3.7,34.4,0,40.5
					c-1.2,6.2-7.4,8.6-8.6,19.7C973.8,476.3,975,476.3,972.5,476.3"/>
				<path id="path3684" class="st0" d="M961.5,418.6c0,27-4.9,23.3,9.8,40.5c1.2-2.5,0-4.9-1.2-8.6c-2.4-11,1.2-20.9-2.4-23.3
					c1.2,7.4-1.2,11.1,0,20.9c0,0-2.5,2.4-2.5-1.2C960.3,435.8,966.4,432.1,961.5,418.6"/>
				<path id="path3686" class="st0" d="M992.2,422.3c-3.7,8.6-1.2,14.7-4.9,31.9c-1.2,1.2-7.4,9.8-6.2,13.5c2.5-3.7,3.7-6.1,6.2-7.4
					c2.4-1.2,6.1-2.4,7.4-3.7c4.9-8.6,4.9-28.2,1.2-34.4c1.2,22.1-2.5,28.2-3.7,29.5c-4.9,6.1-2.5,2.4-1.2,1.2
					C994.6,439.5,993.4,429.6,992.2,422.3"/>
			</g>
		</g>
	</g>
</g>
</svg>
